<svg width="48" height="48" fill="none" xmlns="http://www.w3.org/2000/svg"><path d="M25.81 9.523v19.901c0 1.958.384 3.83 1.147 5.611.763 1.781 1.795 3.322 3.096 4.623 1.3 1.3 2.841 2.332 4.622 3.096a14.105 14.105 0 005.611 1.147h1.81c.49 0 .912-.178 1.272-.538.36-.36.538-.782.538-1.272v-3.619c0-.49-.178-.912-.538-1.272a1.735 1.735 0 00-1.272-.538h-1.81c-1.996 0-3.7-.705-5.116-2.121-1.416-1.411-2.122-3.12-2.122-5.117v-.902c0-.754.264-1.392.792-1.92a2.612 2.612 0 011.92-.792h6.331c1.507 0 2.789-.528 3.845-1.584s1.584-2.338 1.584-3.845V9.528c0-1.507-.528-2.789-1.584-3.845S43.598 4.1 42.091 4.1H31.238c-1.507 0-2.788.528-3.844 1.584s-1.584 2.338-1.584 3.84zm-25.33 0v19.901c0 1.958.384 3.83 1.147 5.611.763 1.781 1.795 3.322 3.096 4.623 1.301 1.3 2.842 2.332 4.623 3.096a14.105 14.105 0 005.61 1.147h1.81c.49 0 .912-.178 1.272-.538.36-.36.538-.782.538-1.272v-3.619c0-.49-.178-.912-.538-1.272a1.735 1.735 0 00-1.272-.538h-1.81c-1.996 0-3.7-.705-5.116-2.121-1.416-1.411-2.122-3.12-2.122-5.117v-.902c0-.754.264-1.392.792-1.92a2.612 2.612 0 011.92-.792h6.336c1.508 0 2.79-.528 3.845-1.584 1.056-1.056 1.584-2.338 1.584-3.845V9.528c0-1.507-.528-2.789-1.584-3.845S18.274 4.1 16.766 4.1H5.914c-1.508 0-2.79.528-3.845 1.584C1.008 6.74.48 8.021.48 9.523z" fill="#FF6B00"/></svg>