<svg width="48" height="40" fill="none" xmlns="http://www.w3.org/2000/svg"><path d="M25.33 5.322v19.525c0 1.921.384 3.758 1.147 5.505.763 1.747 1.795 3.259 3.096 4.535 1.3 1.276 2.841 2.289 4.622 3.038a14.34 14.34 0 005.611 1.125h1.81c.49 0 .912-.174 1.272-.527.36-.354.538-.768.538-1.248v-3.551c0-.48-.178-.895-.538-1.248a1.752 1.752 0 00-1.272-.528h-1.81c-1.996 0-3.7-.692-5.116-2.081-1.416-1.385-2.122-3.061-2.122-5.02v-.886c0-.74.264-1.365.792-1.883a2.638 2.638 0 011.92-.777h6.331c1.507 0 2.789-.519 3.845-1.555s1.584-2.293 1.584-3.772V5.326c0-1.478-.528-2.736-1.584-3.772C44.4.518 43.118 0 41.611 0H30.758c-1.507 0-2.788.518-3.844 1.554S25.33 3.848 25.33 5.322zM0 5.322v19.525c0 1.921.384 3.758 1.147 5.505.763 1.747 1.795 3.259 3.096 4.535 1.301 1.276 2.842 2.289 4.623 3.038a14.339 14.339 0 005.61 1.125h1.81c.49 0 .912-.174 1.272-.527.36-.354.538-.768.538-1.248v-3.551c0-.48-.178-.895-.538-1.248a1.752 1.752 0 00-1.272-.528h-1.81c-1.996 0-3.7-.692-5.116-2.081-1.416-1.385-2.122-3.061-2.122-5.02v-.886c0-.74.264-1.365.792-1.883a2.638 2.638 0 011.92-.777h6.336c1.508 0 2.79-.519 3.845-1.555 1.056-1.036 1.584-2.293 1.584-3.772V5.326c0-1.478-.528-2.736-1.584-3.772C19.075.518 17.794 0 16.286 0H5.434c-1.508 0-2.79.518-3.845 1.554C.528 2.59 0 3.848 0 5.322z" fill="#FF6B00"/></svg>