<svg width="26" height="26" fill="none" xmlns="http://www.w3.org/2000/svg"><path d="M22.659 18.621c-1.115-1.453-2.462-2.4-4.394-2.935l-1.81 6.338a1.064 1.064 0 01-2.126 0V16.98a1.325 1.325 0 10-2.652 0v5.044a1.064 1.064 0 01-2.127 0l-1.81-6.338c-1.932.54-3.281 1.482-4.394 2.935-.442.572-.681 1.724-.697 2.34v2.655c0 1.172.952 2.121 2.122 2.121h16.455a2.122 2.122 0 002.122-2.121v-2.652c-.016-.617-.255-1.768-.697-2.34h.008v-.003zm-9.654-5.09c3.578 0 5.575-4.556 5.575-7.655 0-3.1-2.496-5.616-5.575-5.616-3.078 0-5.574 2.517-5.574 5.616 0 3.102 1.932 7.654 5.574 7.654z" fill="#fff"/></svg>