<svg width="12" height="20" fill="none" xmlns="http://www.w3.org/2000/svg"><path d="M6.15 17.768a.06.06 0 00-.078.034.059.059 0 00.034.078.288.288 0 11-.216.002.061.061 0 00.032-.08.061.061 0 00-.08-.032.41.41 0 10.57.378.412.412 0 00-.262-.38z" fill="#FF8000"/><path d="M6 18.222c.034 0 .06-.026.06-.06v-.16a.06.06 0 00-.06-.06.059.059 0 00-.06.06v.16c0 .034.026.06.06.06z" fill="#FF8000"/><path d="M10.444.2H1.556C.826.2.234.792.234 1.522v16.956c0 .73.592 1.322 1.322 1.322h8.888c.73 0 1.322-.592 1.322-1.322V1.522c0-.73-.592-1.322-1.322-1.322zM9.412 1.356a.232.232 0 010 .464.234.234 0 01-.234-.232c0-.128.106-.232.234-.232zm-5.03.068h3.234c.09 0 .164.074.164.164 0 .09-.074.164-.164.164H4.382a.165.165 0 01-.164-.164c0-.09.074-.164.164-.164zm-2.124 0h1.068c.09 0 .164.074.164.164 0 .09-.074.164-.164.164H2.258a.165.165 0 01-.164-.164c0-.09.074-.164.164-.164zm3.72 17.568a.831.831 0 11-.001-1.663.831.831 0 01.001 1.663zm4.004-3.194c0 .2-.162.364-.364.364H2.382a.363.363 0 01-.364-.364V2.746c0-.2.162-.364.364-.364h7.236c.202 0 .364.162.364.364v13.052z" fill="#FF8000"/></svg>