<svg width="24" height="24" fill="none" xmlns="http://www.w3.org/2000/svg"><path d="M16.524 10.19c0-1.742-.62-3.235-1.858-4.473s-2.73-1.858-4.473-1.858c-1.743 0-3.235.62-4.474 1.858-1.238 1.238-1.86 2.731-1.86 4.474 0 1.742.62 3.235 1.858 4.473 1.238 1.239 2.731 1.858 4.473 1.858 1.743 0 3.236-.62 4.474-1.858s1.86-2.729 1.86-4.473zm7.236 11.76c0 .49-.18.915-.538 1.273a1.74 1.74 0 01-1.272.537 1.68 1.68 0 01-1.272-.537l-4.848-4.834c-1.687 1.169-3.566 1.752-5.64 1.752a9.786 9.786 0 01-3.866-.785 9.933 9.933 0 01-3.18-2.119c-.89-.89-1.596-1.951-2.12-3.18a9.77 9.77 0 01-.784-3.866c0-1.35.262-2.636.785-3.867a9.933 9.933 0 012.119-3.18 9.92 9.92 0 013.18-2.119A9.82 9.82 0 0110.19.24a9.79 9.79 0 013.867.785c1.229.523 2.29 1.229 3.18 2.12a9.92 9.92 0 012.119 3.18 9.77 9.77 0 01.785 3.866c0 2.073-.583 3.952-1.752 5.64l4.848 4.848c.348.348.523.772.523 1.272z" fill="#FF8000"/></svg>