<svg width="43" height="42" fill="none" xmlns="http://www.w3.org/2000/svg"><path d="M21.883.42C10.458.42 1.195 9.395 1.195 20.47c0 3.79 1.084 7.33 2.967 10.354L.43 41.58l11.455-3.553a21.122 21.122 0 009.998 2.495c11.425 0 20.687-8.98 20.687-20.051C42.57 9.395 33.308.42 21.883.42zm10.285 27.665c-.486 1.18-2.687 2.256-3.659 2.302-.972.05-.998.735-6.287-1.508-5.289-2.247-8.47-7.703-8.72-8.055-.25-.349-2.047-2.852-1.952-5.372.099-2.52 1.51-3.709 2.012-4.2a2.038 2.038 0 011.432-.588c.417-.009.688-.013.993 0 .31.012.77-.063 1.17.978.4 1.042 1.359 3.596 1.48 3.86.12.26.197.563.008.899-.19.336-.288.546-.56.836-.274.29-.58.647-.825.87-.275.243-.563.512-.27 1.037.287.525 1.285 2.238 2.799 3.65 1.947 1.814 3.629 2.419 4.15 2.692.52.277.829.243 1.147-.084.318-.332 1.376-1.445 1.75-1.945.374-.5.723-.403 1.2-.214.477.189 3.023 1.52 3.543 1.797.52.273.864.416.99.635.124.205.085 1.23-.4 2.41z" fill="#fff"/></svg>