<svg width="21" height="21" fill="none" xmlns="http://www.w3.org/2000/svg"><g id="ca22fd7c33a5651d317cca61c6fb732c 2" clip-path="url(#clip0_29_863)"><path fill="#fff" d="M0 0h21v21H0z"/><g id="Group"><path id="Vector" d="M10.687.21C5.107.21.584 4.698.584 10.235c0 1.895.529 3.665 1.449 5.177L.21 20.79l5.594-1.777a10.125 10.125 0 004.883 1.248c5.58 0 10.103-4.49 10.103-10.026C20.79 4.698 16.267.21 10.687.21zm5.023 13.833c-.237.59-1.312 1.127-1.787 1.15-.475.026-.487.368-3.07-.753-2.583-1.124-4.137-3.852-4.259-4.028-.122-.175-1-1.426-.953-2.686.048-1.26.737-1.854.982-2.1a.983.983 0 01.7-.294 7.42 7.42 0 01.485 0c.151.006.376-.032.571.49.195.52.664 1.797.722 1.93.06.13.097.28.005.448-.093.168-.141.273-.273.418-.135.145-.284.324-.404.435-.134.122-.275.256-.132.519.14.262.628 1.12 1.367 1.825.952.907 1.773 1.21 2.027 1.346.254.138.405.122.56-.042.156-.166.672-.723.855-.973.183-.25.353-.201.586-.107.233.095 1.476.76 1.73.9.255.136.422.207.483.316.061.103.042.616-.195 1.206z" fill="#00BD1E"/></g></g><defs><clipPath id="clip0_29_863"><path fill="#fff" d="M0 0h21v21H0z"/></clipPath></defs></svg>