<svg width="23" height="39" fill="none" xmlns="http://www.w3.org/2000/svg"><path d="M11.894 34.825a.117.117 0 00-.153.067.116.116 0 00.067.153.565.565 0 11-.424.004.12.12 0 00.063-.157.12.12 0 00-.157-.063.805.805 0 101.117.74.807.807 0 00-.513-.744z" fill="#FF8000"/><path d="M11.6 35.715a.116.116 0 00.118-.117v-.314a.118.118 0 00-.118-.117.116.116 0 00-.118.117v.314c0 .066.051.117.118.117z" fill="#FF8000"/><path d="M20.31.392H2.89A2.591 2.591 0 00.299 2.983v33.234c0 1.43 1.16 2.591 2.59 2.591H20.31a2.591 2.591 0 002.591-2.591V2.983a2.59 2.59 0 00-2.59-2.59zm-2.022 2.266a.455.455 0 010 .91.458.458 0 01-.46-.455.46.46 0 01.46-.455zm-9.86.133h6.34c.176 0 .32.145.32.322a.323.323 0 01-.32.321h-6.34a.323.323 0 01-.32-.321c0-.177.144-.322.32-.322zm-4.162 0h2.093c.176 0 .321.145.321.322a.323.323 0 01-.321.321H4.266a.323.323 0 01-.322-.321c0-.177.145-.322.322-.322zm7.29 34.433a1.63 1.63 0 01-1.63-1.63c0-.902.73-1.631 1.63-1.631a1.632 1.632 0 010 3.261zm7.849-6.26a.713.713 0 01-.714.714H4.51a.711.711 0 01-.714-.714V5.382c0-.392.318-.713.714-.713h14.18c.396 0 .714.317.714.713v25.582z" fill="#FF8000"/></svg>