<svg width="27" height="17" fill="none" xmlns="http://www.w3.org/2000/svg"><path id="Vector" d="M26.857 14.71a1.86 1.86 0 00-.092-.176c-.468-.844-1.363-1.88-2.685-3.107l-.028-.028-.014-.014-.014-.014h-.014c-.6-.572-.98-.956-1.138-1.153-.291-.375-.357-.754-.198-1.139.113-.29.535-.904 1.266-1.841.384-.497.688-.895.913-1.195 1.622-2.156 2.325-3.533 2.11-4.133l-.085-.14c-.056-.085-.201-.162-.435-.232-.235-.07-.535-.082-.9-.035l-4.049.028a.526.526 0 00-.281.007l-.183.042-.07.035-.056.043a.624.624 0 00-.155.147.963.963 0 00-.14.246 22.962 22.962 0 01-1.505 3.163 29.92 29.92 0 01-.956 1.511c-.29.427-.534.74-.73.942a5.097 5.097 0 01-.535.485c-.16.122-.28.174-.365.155a10.22 10.22 0 01-.24-.057.936.936 0 01-.315-.344 1.543 1.543 0 01-.162-.548 6.06 6.06 0 01-.05-.57c-.004-.159-.002-.384.008-.675.01-.29.014-.487.014-.59 0-.356.007-.743.02-1.16.015-.417.026-.747.036-.99.01-.244.014-.502.014-.774s-.017-.485-.05-.64a2.19 2.19 0 00-.146-.45.758.758 0 00-.289-.337 1.625 1.625 0 00-.47-.19C14.39.87 13.758.81 12.988.8c-1.743-.02-2.863.093-3.36.337a1.894 1.894 0 00-.533.422c-.17.206-.193.319-.07.337.562.084.96.286 1.194.604l.084.17c.066.121.132.337.197.646.066.31.108.651.127 1.026.046.684.046 1.27 0 1.757-.047.488-.091.867-.134 1.139a2.28 2.28 0 01-.19.66c-.084.17-.14.272-.168.31a.242.242 0 01-.07.07c-.122.047-.249.07-.38.07s-.29-.065-.478-.196a3.372 3.372 0 01-.583-.542 7.234 7.234 0 01-.682-.963 16.83 16.83 0 01-.788-1.462l-.224-.407a35.67 35.67 0 01-.577-1.146 21.82 21.82 0 01-.646-1.455.927.927 0 00-.338-.45l-.07-.042a.962.962 0 00-.225-.12 1.492 1.492 0 00-.323-.091L.9 1.502c-.394 0-.66.09-.801.267l-.057.085A.455.455 0 000 2.079c0 .103.028.23.084.379A46.395 46.395 0 001.92 6.282c.66 1.227 1.235 2.216 1.722 2.966.487.75.984 1.457 1.49 2.122a31.24 31.24 0 001.005 1.28c.164.187.293.328.387.421l.351.338c.225.225.555.494.991.808.436.314.919.623 1.448.928.53.305 1.146.553 1.849.745a6.39 6.39 0 002.052.232h1.617c.328-.028.576-.131.745-.31l.056-.07a.932.932 0 00.105-.26 1.42 1.42 0 00.05-.386c-.01-.403.02-.766.09-1.09.07-.323.15-.566.24-.73a1.796 1.796 0 01.542-.619.918.918 0 01.112-.049c.225-.075.49-.002.794.218.305.22.59.492.858.816.267.323.588.686.963 1.089.375.403.703.703.984.9l.28.168c.188.113.432.216.732.31.3.093.562.117.787.07l3.599-.056c.356 0 .633-.06.83-.176.196-.117.313-.246.35-.387.038-.14.04-.3.008-.478a1.76 1.76 0 00-.1-.372z" fill="#FF6B00"/></svg>