<svg width="188" height="64" fill="none" xmlns="http://www.w3.org/2000/svg"><path fill="#EC5600" d="M3 45h185v19H3z"/><path d="M23.957 35.087V40H7.686v-4.913h16.271zM9.743 9.43V40H3.444V9.43h6.3zm12.094 12.45v4.788H7.686V21.88h14.15zm2.1-12.45v4.934H7.685V9.43h16.25zm20.576 0h6.278v20.198c0 2.352-.504 4.332-1.512 5.942-.994 1.61-2.373 2.82-4.136 3.632-1.75.812-3.766 1.218-6.047 1.218-2.282 0-4.311-.406-6.09-1.218-1.763-.812-3.149-2.023-4.156-3.632-.994-1.61-1.491-3.59-1.491-5.942V9.43h6.299v20.198c0 1.372.217 2.492.65 3.36.434.867 1.057 1.504 1.87 1.91.825.406 1.798.609 2.918.609 1.148 0 2.12-.203 2.918-.61.812-.405 1.428-1.042 1.848-1.91.434-.867.65-1.987.65-3.36V9.43zm11.464 0h11.4c2.338 0 4.347.35 6.026 1.05 1.694.7 2.996 1.735 3.906 3.107.91 1.372 1.364 3.058 1.364 5.06 0 1.638-.28 3.044-.84 4.22a7.903 7.903 0 01-2.33 2.919c-.994.77-2.163 1.385-3.506 1.847l-1.995 1.05h-9.91l-.042-4.913h7.37c1.105 0 2.022-.196 2.75-.588a3.851 3.851 0 001.638-1.638c.377-.7.566-1.511.566-2.435 0-.98-.181-1.827-.545-2.54a3.683 3.683 0 00-1.66-1.638c-.74-.378-1.672-.567-2.792-.567h-5.102V40h-6.298V9.43zM73.067 40l-6.97-13.627 6.655-.042 7.055 13.375V40h-6.74zm35.568-15.999v1.449c0 2.323-.315 4.409-.945 6.256-.63 1.848-1.519 3.423-2.667 4.725a11.55 11.55 0 01-4.115 2.96c-1.582.686-3.338 1.029-5.27 1.029-1.918 0-3.674-.343-5.27-1.029a11.813 11.813 0 01-4.115-2.96c-1.162-1.302-2.065-2.877-2.709-4.724-.63-1.848-.944-3.934-.944-6.257V24c0-2.338.315-4.423.944-6.257.63-1.848 1.52-3.422 2.667-4.724a11.692 11.692 0 014.115-2.981c1.596-.686 3.353-1.03 5.27-1.03 1.932 0 3.688.344 5.27 1.03a11.436 11.436 0 014.115 2.981c1.162 1.302 2.058 2.877 2.688 4.724.644 1.834.966 3.92.966 6.257zm-6.362 1.449v-1.491c0-1.624-.147-3.051-.441-4.283-.294-1.232-.728-2.268-1.302-3.108-.574-.84-1.273-1.47-2.1-1.89-.825-.433-1.77-.65-2.834-.65s-2.008.217-2.834.65c-.812.42-1.505 1.05-2.079 1.89-.56.84-.987 1.876-1.28 3.108-.295 1.232-.442 2.66-.442 4.283v1.49c0 1.61.147 3.038.441 4.284.294 1.232.728 2.274 1.302 3.128.574.84 1.274 1.477 2.1 1.911.826.434 1.77.65 2.834.65s2.009-.216 2.835-.65c.826-.434 1.518-1.07 2.078-1.91.56-.855.987-1.897 1.281-3.13.294-1.245.441-2.673.441-4.282zm13.773-16.02h5.333l7.853 22.445 7.852-22.445h5.333L131.374 40h-4.284L116.046 9.43zm-2.876 0h5.312l.966 21.878V40h-6.278V9.43zm26.812 0h5.333V40h-6.299v-8.692l.966-21.878zm28.639 0l5.753 10.666 5.752-10.666h7.202l-8.881 15.159L187.559 40h-7.265l-5.92-10.876L168.453 40h-7.307l9.133-15.411-8.902-15.16h7.244z" fill="#fff"/><path d="M157.535 9.43V40h-6.278V9.43h6.278z" fill="#EC5600"/><path d="M88.246 50.89v1.148h-3.198V58h-1.46v-7.11h4.658zm-3.701 2.593h1.66c.56 0 1.042.093 1.445.279.404.185.715.446.933.781a2.1 2.1 0 01.327 1.172c0 .338-.062.648-.185.928a2.053 2.053 0 01-.542.722 2.493 2.493 0 01-.85.469c-.332.11-.708.166-1.128.166h-2.617v-7.11h1.47v5.967h1.147c.28 0 .511-.052.693-.156a1.01 1.01 0 00.41-.415c.095-.176.142-.37.142-.58a1.07 1.07 0 00-.141-.548.954.954 0 00-.41-.39c-.183-.095-.414-.142-.694-.142h-1.66v-1.143zm10.093 3.374V58h-3.785v-1.143h3.785zm-3.306-5.966V58h-1.465v-7.11h1.465zm2.813 2.895V54.9h-3.291v-1.113h3.29zm.488-2.895v1.147h-3.78v-1.147h3.78zm4.136 0V58h-1.46v-7.11h1.46zm2.187 0v1.147h-5.8v-1.147h5.8zm6.538 3.388v.337a4.48 4.48 0 01-.22 1.455 3.19 3.19 0 01-.62 1.099 2.69 2.69 0 01-.957.688 3.04 3.04 0 01-1.225.24c-.446 0-.855-.08-1.226-.24a2.743 2.743 0 01-.957-.688 3.225 3.225 0 01-.63-1.099 4.508 4.508 0 01-.22-1.455v-.337c0-.543.074-1.028.22-1.455.147-.43.353-.796.62-1.098a2.72 2.72 0 01.957-.694c.371-.16.78-.239 1.226-.239.449 0 .858.08 1.226.24.371.159.69.39.957.693.27.302.478.669.625 1.098.149.427.224.912.224 1.455zm-1.479.337v-.346c0-.378-.035-.71-.103-.997a2.141 2.141 0 00-.303-.722 1.304 1.304 0 00-.488-.44 1.396 1.396 0 00-.659-.151c-.247 0-.467.05-.659.151a1.33 1.33 0 00-.484.44c-.13.195-.229.436-.298.722a4.342 4.342 0 00-.102.996v.347c0 .375.034.707.102.996.069.287.17.53.303.728.134.195.296.343.488.444a1.4 1.4 0 00.66.151c.247 0 .467-.05.659-.15.192-.102.353-.25.483-.445.13-.199.23-.441.298-.728.068-.29.103-.621.103-.996zm7.275-.83v1.143h-3.711v-1.143h3.711zm-3.276-2.895V58h-1.465v-7.11h1.465zm4.321 0V58h-1.46v-7.11h1.46zm6.016 2.895v1.143h-3.711v-1.143h3.711zm-3.277-2.895V58h-1.465v-7.11h1.465zm4.322 0V58h-1.46v-7.11h1.46zm2.241 2.592h1.66c.557 0 1.037.093 1.44.279.407.185.718.446.933.781.218.335.327.726.327 1.172 0 .338-.062.648-.185.928a2.076 2.076 0 01-.538.722 2.486 2.486 0 01-.849.469c-.332.11-.708.166-1.128.166h-2.617v-7.11h1.469v5.967h1.148c.277 0 .506-.052.688-.156.186-.104.324-.242.415-.415.092-.176.137-.37.137-.58 0-.203-.045-.385-.137-.548a.945.945 0 00-.415-.39c-.182-.095-.411-.142-.688-.142h-1.66v-1.143zm6.45-2.592V58h-1.46v-7.11h1.46zm6.045 5.966V58h-3.784v-1.143h3.784zm-3.306-5.966V58h-1.465v-7.11h1.465zm2.813 2.895V54.9h-3.291v-1.113h3.291zm.488-2.895v1.147h-3.779v-1.147h3.779zm6.006 3.7h-1.104v-.776h.879c.257 0 .466-.039.625-.117a.777.777 0 00.352-.342 1.12 1.12 0 00.112-.517.834.834 0 00-.508-.776c-.172-.085-.392-.128-.659-.128a1.38 1.38 0 00-.552.108.949.949 0 00-.395.303.737.737 0 00-.147.464h-1.46c0-.313.067-.593.201-.84a1.92 1.92 0 01.556-.635c.238-.176.511-.31.821-.4a3.4 3.4 0 01.976-.137c.4 0 .762.044 1.084.132.322.084.599.211.83.38.231.17.409.38.532.63.124.251.186.542.186.875 0 .244-.055.473-.166.688a1.741 1.741 0 01-.474.566 2.365 2.365 0 01-.737.386 3.129 3.129 0 01-.952.137zm-1.104-.424h1.104c.387 0 .731.04 1.03.122.303.081.558.2.767.356a1.5 1.5 0 01.478.582c.111.227.166.49.166.786 0 .332-.068.626-.205.884a1.858 1.858 0 01-.571.654 2.615 2.615 0 01-.869.405 4.15 4.15 0 01-1.099.137c-.319 0-.636-.04-.952-.117a2.906 2.906 0 01-.859-.371 1.889 1.889 0 01-.616-.64c-.153-.26-.229-.573-.229-.938h1.47c0 .173.05.33.151.474.101.14.241.252.42.337.179.081.384.122.615.122.27 0 .5-.042.689-.127a.979.979 0 00.434-.347.863.863 0 00.151-.493c0-.192-.026-.355-.078-.488a.793.793 0 00-.229-.327.913.913 0 00-.376-.19 2.001 2.001 0 00-.513-.06h-.879v-.761zm7.52-2.06L146.615 58h-1.557l2.641-7.11h.991l-.141 1.216zM150.155 58l-1.938-5.894-.156-1.215h1.001L151.718 58h-1.563zm-.088-2.647v1.148h-3.755v-1.148h3.755zm5.093-.473h-1.826l-.01-1.006h1.533c.271 0 .492-.034.664-.102a.8.8 0 00.386-.308.901.901 0 00.132-.498c0-.221-.042-.4-.127-.537a.696.696 0 00-.386-.298 2.012 2.012 0 00-.669-.093h-1.015V58h-1.465v-7.11h2.48c.414 0 .783.04 1.109.118.329.078.607.197.835.356.228.16.402.362.522.606.121.24.181.527.181.86 0 .292-.067.562-.2.81-.13.247-.337.449-.62.605-.28.156-.647.243-1.099.259l-.425.376zm-.063 3.12h-2.163l.571-1.143h1.592c.257 0 .467-.04.63-.122a.84.84 0 00.361-.341c.078-.144.117-.308.117-.494 0-.208-.036-.389-.107-.542a.728.728 0 00-.332-.351c-.153-.085-.355-.127-.606-.127h-1.411l.01-1.006h1.758l.337.395c.432-.006.781.07 1.044.23.267.156.461.36.581.61.124.251.186.52.186.806 0 .456-.099.84-.298 1.152-.198.31-.49.542-.874.699-.381.156-.846.234-1.396.234zm9.507-3.72v.336c0 .54-.074 1.026-.22 1.455-.147.43-.353.796-.62 1.099a2.69 2.69 0 01-.957.688c-.368.16-.777.24-1.226.24-.446 0-.854-.08-1.226-.24a2.762 2.762 0 01-.957-.688 3.206 3.206 0 01-.629-1.099 4.48 4.48 0 01-.22-1.455v-.337c0-.543.073-1.028.22-1.455a3.19 3.19 0 01.62-1.098 2.72 2.72 0 01.957-.694 3.06 3.06 0 011.225-.239c.45 0 .858.08 1.226.24.371.159.69.39.957.693.27.302.478.669.625 1.098.15.427.225.912.225 1.455zm-1.48.336v-.346c0-.378-.034-.71-.103-.997a2.16 2.16 0 00-.302-.722 1.306 1.306 0 00-.489-.44 1.394 1.394 0 00-.659-.151c-.247 0-.467.05-.659.151a1.32 1.32 0 00-.483.44 2.22 2.22 0 00-.298.722 4.283 4.283 0 00-.103.996v.347c0 .375.034.707.103.996.068.287.169.53.303.728.133.195.296.343.488.444.192.101.412.151.659.151.247 0 .467-.05.659-.15.192-.102.353-.25.484-.445a2.28 2.28 0 00.297-.728 4.32 4.32 0 00.103-.996zm8.008 2.241V58h-5.122v-1.143h5.122zm-4.688 0v2.886h-1.377l-.078-2.886h1.455zm5.743 0l-.127 2.891h-1.343v-2.89h1.47zm-1.861-5.966v1.147h-3.423v-1.147h3.423zm1.045 0V58h-1.46v-7.11h1.46zm-4.648 0h1.465l-.191 2.895a9.198 9.198 0 01-.156 1.27 6.12 6.12 0 01-.264.962 4.326 4.326 0 01-.337.727 3.573 3.573 0 01-.805.938c-.14.114-.277.22-.411.317h-.839v-1.143h.327c.094-.078.193-.185.298-.322.107-.137.208-.32.302-.552.098-.234.183-.53.254-.888.075-.358.13-.794.166-1.309l.191-2.895zm7.187 2.592h1.66c.557 0 1.037.093 1.441.279.407.185.718.446.932.781.218.335.328.726.328 1.172 0 .338-.062.648-.186.928a2.086 2.086 0 01-.537.722 2.5 2.5 0 01-.85.469c-.332.11-.708.166-1.128.166h-2.617v-7.11h1.47v5.967h1.147c.277 0 .506-.052.689-.156.185-.104.324-.242.415-.415.091-.176.137-.37.137-.58 0-.203-.046-.385-.137-.548a.95.95 0 00-.415-.39c-.183-.095-.412-.142-.689-.142h-1.66v-1.143zm6.45-2.592V58h-1.46v-7.11h1.46z" fill="#fff"/></svg>