<svg width="35" height="35" fill="none" xmlns="http://www.w3.org/2000/svg"><g clip-path="url(#clip0_23_129)" fill="#FF6B00"><path d="M6.478.45C6.192.57.6 6.104.428 6.44a.563.563 0 00-.07.358c.056.214 27.721 27.857 27.878 27.857a.853.853 0 00.322-.1c.107-.057 1.473-1.387 3.032-2.953 2.81-2.817 3.06-3.11 3.06-3.54 0-.543.129-.414-13.7-14.221C9.238 2.152 7.55.492 7.293.42c-.38-.107-.508-.107-.815.028zm13.8 14.293L33.47 27.935l-2.552 2.553-2.56 2.56-.694-.694-.7-.7.786-.787.786-.787-.415-.407-.407-.415-.787.787-.786.786-.694-.7-.7-.694.786-.787.787-.787-.43-.429-.428-.429-.787.787-.786.786-.7-.7-.695-.694.787-.786.786-.786-.407-.408-.415-.415-.786.787-.787.786-.7-.7-.694-.694.786-.787.787-.786-.408-.408-.415-.415-.786.787-.787.786-.7-.7-.694-.694.787-.786.786-.787-.408-.407-.415-.415-.786.786-.786.787-.716-.715-.714-.715.786-.787.786-.786-.414-.408-.407-.415-.787.787-.786.786-.694-.7-.7-.694.786-.787.787-.786-.415-.408-.408-.414-.786.786-.787.787-.694-.7-.7-.695.786-.786.787-.787-.415-.407-.408-.415-.786.787-.786.786-.694-.7-.7-.694.786-.787.786-.786-.429-.43-.43-.428-.785.787-.787.786-.7-.7-.694-.694.786-.787.787-.786-.408-.408-.415-.415-.786.787-.787.786-2.073-2.073-2.074-2.074 2.538-2.538C5.87 2.694 7.028 1.55 7.05 1.55c.021 0 5.97 5.934 13.228 13.192z"/><path d="M6.657 3.481c-.344.172-.515.394-.594.765-.114.53.1 1.016.565 1.259.315.171.922.136 1.194-.072.686-.514.608-1.58-.157-1.945-.38-.186-.644-.186-1.008-.007zM28.465.47c-.158.072-.637.494-1.073.93l-.786.794 3.096 3.09 3.089 3.095.822-.822c.965-.965 1.115-1.237.972-1.78-.078-.3-.3-.55-2.46-2.71C30.818 1.758 29.666.62 29.56.542c-.286-.207-.75-.243-1.094-.071zm-6.528 6.393l-3.375 3.375 3.096 3.096 3.089 3.09 3.396-3.397 3.397-3.396-3.075-3.075c-1.688-1.688-3.09-3.075-3.11-3.075-.022 0-1.56 1.523-3.418 3.382zM6.692 22.108L2.938 25.86l3.096 3.09 3.09 3.095 3.768-3.768 3.775-3.775-3.075-3.075c-1.687-1.687-3.089-3.075-3.11-3.075-.022 0-1.723 1.688-3.79 3.755zM2.38 26.555c-.02.029-.493 1.76-1.05 3.847-1.08 4.04-1.073 4.018-.694 4.19.129.057.872-.114 3.947-.944 2.088-.55 3.811-1.03 3.847-1.058.028-.029-1.209-1.323-2.753-2.867-3.09-3.096-3.246-3.246-3.296-3.168z"/></g><defs><clipPath id="clip0_23_129"><path fill="#fff" d="M0 0h35v35H0z"/></clipPath></defs></svg>