<svg width="37" height="37" fill="none" xmlns="http://www.w3.org/2000/svg"><path d="M1.343 26.455V29.3s-.1 5.373 4.95 7.293v-13.42c0 .022-3.507 1.861-4.95 3.282zm7.419-3.97v8.466h8.317s0-6.501 4.514-8.466c0 0-1.776-.437-1.88-.522 0 0-1.38 1.525-4.306 1.569 0 0-1.965.126-4.307-1.569.004-.004-2.068.293-2.338.522zm.296-6.105s1.295 5.709 6.145 5.75c0 0 4.011.459 6.017-5.75 0 0 1.232.126 1.232-2.046 0 0 .377-1.88-1.799-1.362 0 0-1.065.503-5.809.522 0 0-3.03.107-5.076-.463 0 0-1.71-.48-1.987.563v1.42c0 .03.082 1.325 1.277 1.366zm-2.905-6.33s.355 2.09 8.151 2.341c0 0 5.85.207 8.088-1.173l-.584-5.875s-1.61-3.341-5.828-4.052V.37h-1.802l-.018.94s-2.986.188-5.287 3.219c0 0-1.273 1.128-1.673 4.662l-1.047.858zm17.72 26.562V29.07s.166-.418.65-.437h5.95s.396.085.481.503v7.478h.481s4.892-2.823 4.137-7.98c0 0-.603-4.515-5.62-6.25L31.38 5.809s.148-3.844-4.033-4.096c0 0-3.656-.1-4.011 4.096l2.904-.481 1.147-1.106 1.38 1.402-1.361 1.38-1.38-1.38.396-.396-3.03.433L25 22.171s-5.58 1.986-5.85 7.647c0 0-.296 3.804 4.285 6.816l.436-.023z" fill="#FF6B00"/></svg>