<svg width="37" height="42" fill="none" xmlns="http://www.w3.org/2000/svg"><path d="M13.997.531c-.05.052-.184.703-.31 1.433-.117.728-.25 1.397-.284 1.491-.042.112-.277.215-.846.37-.435.12-.854.222-.929.23-.075 0-.51-.454-1.013-1.063-.477-.592-.937-1.123-1.012-1.183-.118-.103-.31-.017-1.44.643-.712.412-1.314.815-1.34.892-.025.077.184.78.46 1.56l.503 1.415-.687.695-.695.703-1.398-.514c-.779-.283-1.456-.498-1.507-.48-.058.025-.443.643-.845 1.363-.52.918-.72 1.363-.67 1.449.034.068.57.557 1.18 1.089.838.72 1.106.994 1.064 1.106-.034.077-.142.48-.243.892-.108.412-.226.789-.268.823-.041.034-.694.171-1.456.309-.762.128-1.431.274-1.482.317-.083.068-.108.497-.108 1.612 0 1.114.025 1.543.108 1.612.05.043.712.197 1.465.326.754.137 1.407.266 1.448.3.067.034.327.892.545 1.792.016.077-.385.472-1.097 1.072-.62.515-1.147.995-1.172 1.064-.06.154 1.372 2.735 1.548 2.795.076.026.862-.231 1.758-.565 1.616-.6 2.545-.85 3.19-.85.276 0 .343-.034.41-.222.05-.12.083-.266.083-.335 0-.06-.393-.454-.879-.857-.954-.815-1.213-1.21-1.213-1.827 0-.497.142-.815.97-2.126l.72-1.14.025-1.14c.034-1.553.352-2.659 1.105-3.817 1.65-2.546 4.697-3.781 7.551-3.06.653.162 1.758.677 2.31 1.063l.394.274 1.44-.017c1.917-.035 1.842-.043 2.227.308.426.395.644 1.004.761 2.118.1.926.151 1.047.419 1.115.134.034.26-.051.528-.352.887-1.02 1.264-1.397 2.452-2.426.703-.61 1.314-1.175 1.357-1.26.058-.12-.076-.42-.62-1.381-.377-.67-.745-1.278-.812-1.355-.117-.111-.284-.069-1.557.403l-1.423.532-.686-.703-.678-.712.51-1.45c.385-1.106.486-1.483.419-1.577-.201-.24-2.595-1.587-2.704-1.518-.067.034-.536.566-1.038 1.183-.502.61-.971 1.106-1.038 1.106-.318-.034-1.632-.42-1.716-.497-.05-.052-.192-.712-.326-1.466-.125-.755-.26-1.44-.301-1.526C17.078.438 16.919.42 15.58.42c-1.098-.001-1.517.025-1.583.11z" fill="#FF6B00"/><path d="M19.856 11.156c-.042.06-.184.746-.31 1.526-.133.78-.267 1.45-.3 1.492-.034.043-.402.163-.804.274-.402.103-.796.215-.87.25-.11.042-.377-.232-1.08-1.09-.52-.626-.997-1.175-1.064-1.21-.125-.076-2.67 1.364-2.746 1.553-.016.06.193.755.47 1.543l.501 1.44-.686.704-.686.703-1.398-.515c-.77-.283-1.448-.497-1.515-.471-.067.025-.444.634-.846 1.346-.552 1.003-.703 1.338-.644 1.458.042.077.569.566 1.163 1.072.863.737 1.08.96 1.047 1.097-.26 1.072-.46 1.707-.553 1.758-.067.034-.72.171-1.456.3-.737.129-1.39.274-1.44.317-.084.069-.109.497-.109 1.62 0 1.381.017 1.536.15 1.613.084.043.729.18 1.44.309.712.12 1.348.248 1.415.283.092.051.318.788.553 1.775.025.137-.193.368-1.089 1.114-.619.515-1.138.995-1.171 1.064-.042.111 1.297 2.572 1.506 2.752.093.078.427-.017 1.532-.428l1.423-.532.678.712.687.712-.51 1.449c-.386 1.106-.486 1.475-.41 1.569.05.06.652.446 1.33.849.846.497 1.29.72 1.365.668.066-.034.519-.557 1.004-1.157.494-.592.921-1.106.963-1.123.067-.043 1.54.326 1.774.446.084.042.193.505.352 1.431.126.746.268 1.45.318 1.553.076.197.109.197 1.582.197 1.097 0 1.515-.026 1.583-.103.042-.06.184-.712.301-1.44.125-.73.251-1.398.285-1.493.05-.111.276-.214.811-.36.419-.112.829-.214.921-.24.134-.043.343.171 1.072 1.063.494.61.97 1.15 1.046 1.192.117.06.435-.086 1.423-.66.695-.412 1.289-.798 1.314-.866.025-.069-.184-.772-.46-1.552l-.51-1.432.686-.703.686-.703 1.407.514c.778.292 1.456.497 1.515.48.193-.077 1.59-2.675 1.515-2.813-.033-.068-.57-.557-1.18-1.089-.846-.72-1.106-.994-1.064-1.097.034-.086.143-.489.243-.9.109-.412.226-.79.268-.824.042-.034.695-.171 1.456-.308.762-.129 1.432-.275 1.49-.318.076-.068.1-.497.1-1.611 0-1.115-.024-1.544-.1-1.612-.058-.043-.72-.198-1.473-.326-.753-.138-1.406-.266-1.448-.3-.067-.035-.326-.892-.544-1.792-.017-.078.385-.472 1.096-1.072.62-.523 1.147-.995 1.172-1.064.059-.145-1.372-2.727-1.54-2.795-.067-.026-.745.188-1.515.471l-1.39.523-.686-.712-.695-.703.51-1.423c.277-.789.486-1.483.461-1.552-.067-.18-2.587-1.638-2.729-1.578-.067.026-.528.566-1.038 1.2-.737.927-.955 1.14-1.088 1.107-1.507-.395-1.674-.455-1.725-.6-.033-.095-.167-.763-.284-1.492-.126-.729-.26-1.38-.31-1.432-.126-.154-3.022-.154-3.148-.008zm2.662 8.052a7.797 7.797 0 012.428.875c.845.489 2.092 1.757 2.57 2.632 1.314 2.401 1.239 5.214-.201 7.495a6.918 6.918 0 01-11.293.668c-.535-.668-1.205-2.023-1.423-2.89-.184-.728-.2-2.418-.042-3.172.57-2.64 2.62-4.819 5.157-5.47a6.75 6.75 0 012.804-.138z" fill="#FF6B00"/><path d="M21.112 20.194c-.059.026-.302.266-.544.523-.47.506-1.524 1.26-2.193 1.57a8.43 8.43 0 01-1.172.376l-.753.198-.31.634a6.163 6.163 0 00-.654 2.821c0 1.32.218 2.152.82 3.147.32.532.838 1.184.897 1.124.017-.017.134-.61.251-1.312.117-.712.243-1.338.276-1.406.034-.06.402-.198.812-.309.419-.111.812-.223.887-.257.11-.043.377.231 1.08 1.089.52.626.988 1.175 1.055 1.21.134.076 2.678-1.356 2.754-1.553.017-.051-.193-.754-.469-1.543l-.502-1.44.678-.704.678-.703 1.022.377c.56.206 1.121.42 1.247.472l.234.085-.167-.428c-.285-.78-.695-1.39-1.474-2.187-.653-.678-.87-.84-1.548-1.175-.436-.215-.963-.43-1.18-.48-.486-.12-1.575-.198-1.725-.129z" fill="#FF6B00"/></svg>