<svg width="31" height="34" fill="none" xmlns="http://www.w3.org/2000/svg"><path d="M14.127.176a.54.54 0 00-.173.435c0 .267 0 .267-.39.358-.902.217-2.125.87-2.889 1.55-1.459 1.284-2.32 2.926-2.529 4.827-.041.428-.055.45-.458.8-.493.435-.563.575-.424.905.299.736 1.487 1.417 3.147 1.796 1.383.315 2.487.407 4.828.407 2.257 0 3.285-.085 4.654-.372 1.667-.358 3.098-1.095 3.362-1.754.16-.386.083-.569-.424-.955-.257-.19-.48-.413-.5-.49a22.563 22.563 0 01-.104-.744 7.67 7.67 0 00-.667-2.168c-.465-.94-1.361-2-2.258-2.673-.514-.386-1.653-.94-2.236-1.095l-.472-.119V.611a.54.54 0 00-.174-.436C16.26.007 16.219 0 15.274 0c-.945 0-.987.008-1.147.176z" fill="#fff"/><path d="M8.383 11.415c-.32.372-.368.582-.368 1.635.007.954.02 1.052.222 1.627a7.026 7.026 0 001.216 2.16c.27.324.444.611.542.913.854 2.567 3.028 4.363 5.279 4.363 2.25 0 4.425-1.796 5.272-4.35.097-.294.292-.61.59-.988a6.802 6.802 0 001.181-2.105c.202-.568.215-.666.215-1.62 0-.954-.006-1.039-.173-1.326-.271-.484-.299-.491-1.23-.197-1.688.54-3.5.716-6.682.66-2.598-.043-3.82-.21-5.314-.723-.577-.204-.618-.204-.75-.049z" fill="#fff"/><path d="M8.848 20.514c-3.917 1.593-5.23 2.308-6.245 3.41C1.207 25.446.221 28 .02 30.602c-.034.499-.028.646.063.78.202.308 2.202.981 4.008 1.34 5.89 1.185 15.365 1.248 21.637.14 1.64-.295 3.293-.751 4.37-1.221.465-.197.5-.316.395-1.368-.229-2.42-1.23-4.904-2.535-6.335-1.09-1.186-2.438-1.901-7.21-3.81l-.327-.126-.083.4c-.145.736-.826 3.157-1.18 4.237-.737 2.217-1.737 4.448-2.98 6.65-.702 1.236-.855 1.376-1.16 1.032-.445-.484-2.293-4.104-2.918-5.696a47.323 47.323 0 01-1.764-5.697 24.78 24.78 0 00-.23-.912s-.569.217-1.257.498z" fill="#fff"/><path d="M13.843 23.32c-.063.16.36 2.154.465 2.224.056.035.486.063.966.063s.91-.028.965-.063c.104-.07.528-2.063.466-2.224-.056-.148-2.807-.148-2.862 0zm.423 2.863c-.076.217-.451 1.95-.451 2.097 0 .21 1.347 2.792 1.459 2.8.041 0 .236-.344.917-1.614.347-.66.541-1.095.534-1.228 0-.119-.104-.638-.222-1.157l-.222-.947-.994-.021c-.75-.014-1 0-1.02.07z" fill="#fff"/></svg>