<svg width="62" height="49" fill="none" xmlns="http://www.w3.org/2000/svg"><path d="M22.572 1.69l.024.011c1.133.505 1.835 1.43 2.259 2.585l.191.511.095.252v.27l.025 6.172h0l.024 6.184.006 1.506H4.073l.006-1.506.024-6.184v0-.083c.012-2.989.018-4.54.044-5.395.013-.426.032-.745.072-1.008.048-.318.122-.522.182-.68v-.002l1.404.53c.274-.736.573-1.184 1.026-1.518L22.57 1.69zm0 0l-.025-.01a1.546 1.546 0 00-.49-.112 5.066 5.066 0 00-.19-.012 22.375 22.375 0 00-.498-.016c-.404-.01-.968-.018-1.648-.025a440.138 440.138 0 00-5.212-.013h0l-7.27.023-.5.002-.398.3-.407.306 16.638-.443z" stroke="#FF6B00" stroke-width="3"/><path d="M60.195 33.349l-.13.29-.282.638-.002.003c-.533 1.194-1.46 2.115-2.636 2.692l-.006.003h0a4.82 4.82 0 01-1.116.408 7.01 7.01 0 01-1.125.13c-.594 4.246-3.486 7.633-7.606 8.807l-.008.002h0c-.688.192-1.64.26-2.471.26-.832 0-1.784-.068-2.472-.26l-.011-.003h0c-1.867-.536-3.244-1.35-4.6-2.716-1.668-1.669-2.658-3.699-2.995-6.057h-9.456c-.339 2.343-1.256 4.202-2.886 5.917l-.003.004c-1.198 1.252-2.396 2.056-3.889 2.576-3.828 1.338-7.86.307-10.623-2.686h0c-1.548-1.679-2.449-3.567-2.764-5.84a5.389 5.389 0 01-.944-.154l-.01-.003-.011-.003c-.633-.19-1.171-.626-1.532-1.004-.366-.382-.768-.932-.94-1.558l-.004-.014-.004-.013a2.887 2.887 0 01-.07-.501l-.001-.006a15.6 15.6 0 01-.028-.525 71.607 71.607 0 01-.04-1.539 280.24 280.24 0 01-.03-4.344c0-1.562.01-3.127.03-4.345.011-.608.024-1.137.04-1.539.008-.2.017-.379.028-.524v-.006a3.02 3.02 0 01.071-.502l.004-.013.003-.013c.173-.626.575-1.177.94-1.559.362-.377.9-.813 1.533-1.004h.003c.166-.05.327-.066.377-.072h.005a6.31 6.31 0 01.271-.02c.193-.011.448-.02.762-.029.63-.016 1.543-.029 2.764-.039 2.443-.02 6.147-.029 11.352-.029h13.175l.024-4.289h0l.033-5.77.001-.313.128-.286.283-.638.001-.003c.533-1.193 1.457-2.113 2.631-2.69l.005-.002.72-.36.314-.156.35-.001 4.79-.023h0m18.057 29.72L42.138 3.629m18.057 29.72v-7.078c0-5.258 0-5.614-.307-6.809-1.01-4.055-3.617-8.544-6.858-11.943-1.678-1.766-3.395-3.091-4.992-3.63m12.157 29.46L48.038 3.889m-5.9-.26c2.185-.012 3.431-.015 4.2.01.798.027 1.218.087 1.7.25m-5.9-.26l5.9.26m-8.586 6.44l.126-.01c.534-.032 1.537-.043 3.59-.06 2.084-.012 3.085-.017 3.621.008.096.004.164.01.21.013.705.472 1.593 1.418 2.448 2.685.864 1.282 1.606 2.763 2.035 4.13l.001.001c.167.528.317 1.176.414 1.749.048.285.079.532.093.723.008.102.009.166.009.199a.644.644 0 01-.101.149 8.504 8.504 0 01-.398.034c-.433.028-.994.044-1.569.045a26.304 26.304 0 01-1.568-.038 9.17 9.17 0 01-.355-.028l-.032-.03a7.608 7.608 0 01-.479-.52h0l-.005-.006c-.971-1.145-1.822-1.829-3.133-2.502-1.217-.635-2.317-.967-3.988-1.29h0l-.009-.002a8.919 8.919 0 01-.649-.14 1.426 1.426 0 01-.257-.088s0 0 0 0a.342.342 0 01-.027-.029c0-.009 0-.018-.002-.028-.025-.36-.029-1.031-.029-2.461s.004-2.102.03-2.462v-.017a4.49 4.49 0 01.024-.025zm3.667 22.179l.013-.007.012-.006c.166-.087.548-.234.8-.307.663-.18 1.638-.106 2.428.242.236.11.625.393 1.03.815.403.422.682.837.793 1.102.657 1.598.385 3.18-.712 4.41-1.47 1.642-3.833 1.65-5.298.046l-.003-.003c-1.141-1.244-1.411-2.954-.708-4.522.079-.17.352-.56.768-1.002.192-.205.387-.39.56-.535a3.211 3.211 0 01.29-.218.424.424 0 01.027-.015zm-29.616 0l.013-.006.013-.007c.166-.087.548-.233.8-.307.663-.18 1.637-.106 2.43.243.235.11.624.392 1.028.814.402.42.68.833.793 1.098a4.401 4.401 0 01-.076 3.55v.003c0-.001-.015.03-.057.095a3.28 3.28 0 01-.165.23c-.14.181-.319.387-.515.592a7.702 7.702 0 01-.573.542 3.668 3.668 0 01-.301.229.74.74 0 01-.024.014c-1.487.745-3.178.433-4.299-.795-1.153-1.264-1.421-3-.689-4.583.066-.133.337-.508.762-.954.196-.205.393-.392.565-.537.086-.072.158-.129.216-.17a.633.633 0 01.08-.051z" stroke="#FF6B00" stroke-width="3"/></svg>