<svg width="57" height="53" fill="none" xmlns="http://www.w3.org/2000/svg"><path d="M35.785.968a2.623 2.623 0 00-1.647 1.93c-.054.23-.152.295-.632.415-.938.207-2.094.85-2.901 1.593l-.742.686-.97-.48c-.546-.261-1.353-.567-1.8-.676-.633-.152-.828-.25-.85-.414-.022-.109-.164-.458-.306-.752-.49-.993-1.34-1.364-3.086-1.364-1.025 0-1.81.196-2.312.567-.371.294-.807 1.004-.905 1.516-.055.24-.142.295-.687.393-1.45.272-2.803.992-3.926 2.105-1.702 1.668-2.934 4.384-3.163 6.969-.066.763-.077.807-.404.938-1.254.534-1.985 2.235-1.897 4.428l.032.807 1.418.272 1.407.283.12.48c.119.459.097.534-.197 1.08-.85 1.505-.261 4.482 1.113 5.704.48.425.567.567.829 1.45.381 1.265 1.057 2.65 1.733 3.545l.535.698-.076 1.864c-.077 1.68-.11 1.898-.338 2.302-.546.926-1.92 1.723-5.562 3.206-3.85 1.57-5.454 2.486-7.024 4.035C1.77 46.282.952 48.245.647 51.44l-.077.742h22.433c21.31 0 22.423-.01 22.368-.196a16.478 16.478 0 01-.12-1.058c-.108-1.418-.392-2.476-1.112-4.177-.043-.098 1.222-.131 6.118-.131 4.2 0 6.173-.033 6.173-.109 0-.066-.055-.589-.109-1.178-.229-2.072-.763-3.5-1.843-4.853-1.32-1.657-2.956-2.759-6.282-4.22-3.206-1.417-4.57-2.28-4.919-3.13-.109-.24-.153-.829-.153-1.789v-1.428l.372-.512c.196-.273.512-.797.697-1.156.317-.655.895-2.247.895-2.497 0-.077.142-.24.316-.37.73-.536 1.2-1.484 1.428-2.88.12-.807.011-1.647-.305-2.246-.185-.36-.185-.404.043-1.32.23-.916.25-.938.6-1.014.207-.044.883-.185 1.494-.316l1.134-.251-.076-1.09c-.142-2.247-.61-3.196-1.855-3.829-.152-.076-.229-.24-.25-.545-.098-1.374-.644-3.229-1.33-4.493-1.167-2.16-2.64-3.425-4.69-4.025-.786-.229-.818-.25-.894-.632-.164-.797-.927-1.592-1.724-1.81-.566-.166-2.703-.133-3.194.041zm2.76 6.227c.054 3.686.076 4.057.25 4.33.328.48 1.102.6 1.517.23.48-.415.523-.753.523-3.578 0-2.061.032-2.672.142-2.672.065 0 .447.152.829.327 1.068.501 1.952 1.472 2.617 2.857.621 1.298.872 2.214 1.003 3.719.12 1.417.327 1.701 1.549 2.083.207.065.403.49.403.872 0 .24-.076.273-1.494.491-2.137.327-3.337.436-6.248.556-3.872.153-3.447.207-3.752-.469-.295-.665-.916-1.32-1.44-1.516-.348-.12-.36-.153-.425-.84-.185-1.886-1.102-4.471-2.072-5.79-.206-.285-.381-.568-.381-.633 0-.338 1.875-1.658 2.366-1.658.098 0 .142.73.164 2.89l.032 2.89.338.338c.48.469 1.026.469 1.505 0l.338-.338.033-4.1.032-4.09 1.058.033 1.058.032.054 4.036zM24.04 8.362l.055 4.122.283.284c.59.588 1.581.305 1.832-.513.077-.24.12-1.44.12-3.043v-2.65l.382.066c.741.12 1.8.73 2.552 1.483 1.527 1.494 2.356 3.523 2.573 6.293.088 1.058.317 1.505.895 1.745 1.025.436 1.123.545 1.264 1.308l.066.35-1.44.218c-3.118.501-5.005.61-9.727.61-4.679 0-6.413-.109-9.587-.589-.774-.12-1.428-.218-1.44-.218-.098 0-.032-.47.132-.862.12-.305.272-.469.512-.556 1.232-.47 1.428-.763 1.538-2.334.174-2.465 1.047-4.515 2.552-6.01.654-.654 1.843-1.319 2.552-1.428l.403-.066.033 2.956.032 2.955.284.283c.588.59 1.58.306 1.832-.512.076-.25.12-1.745.12-4.155 0-2.072.032-3.795.076-3.84.043-.043.523-.054 1.068-.043l.982.033.056 4.113zM44.4 18.505c-.02.076-.184.556-.348 1.068l-.306.927.47.47.469.457-.077.677c-.098.97-.349 1.406-.905 1.614-.25.087-.48.196-.512.218-.022.033-.153.546-.273 1.145-.294 1.429-1.014 2.934-1.657 3.447l-.459.36.077 2.344c.076 2.334.076 2.356.403 2.956.797 1.504 2.04 2.366 5.835 4.035 2.05.916 2.694 1.243 3.73 1.941.949.622 1.92 1.603 2.377 2.377.24.404.699 1.593.699 1.81 0 .044-2.596.088-5.77.088h-5.77l-.588-.47c-1.615-1.308-3.13-2.126-6.576-3.51-3.512-1.419-4.788-2.171-5.442-3.164-.284-.414-.284-.458-.284-2.366v-1.942l.404-.512c.534-.699 1.374-2.498 1.701-3.61.23-.807.316-.96.818-1.418a3.98 3.98 0 00.883-1.221c.328-.72.666-2.094.666-2.749 0-.523-.295-1.592-.535-1.93-.185-.262-.197-.338-.076-.83l.142-.534 1.406-.283 1.407-.272.033-.448.032-.447 2.803-.076c1.538-.055 3.119-.12 3.511-.164 1.2-.141 1.778-.141 1.713.012zm-26.468 2.279c3.065.207 8.932.131 12.302-.185.894-.087.894-.087.61.763l-.185.524.523.512.524.502-.065.85c-.044.644-.131 1.014-.371 1.473-.294.588-.338.622-.84.73l-.546.11-.185 1.036c-.349 1.897-1.035 3.446-1.941 4.34l-.589.589.055 2.639c.055 2.563.065 2.661.338 3.26.327.732 1.178 1.659 2.094 2.313.916.654 2.05 1.2 4.831 2.333 3.872 1.582 4.995 2.214 6.402 3.654.949.96 1.417 1.745 1.789 2.945.13.403.229.763.229.785 0 .021-8.954.044-19.903.044C5.99 50 3.1 49.979 3.1 49.848c0-.317.546-1.745.895-2.334.196-.338.698-.96 1.123-1.374 1.32-1.32 2.749-2.127 6.435-3.61 4.351-1.767 5.791-2.715 6.707-4.438l.371-.687.044-2.738.055-2.726-.459-.36c-.818-.654-1.8-2.66-2.082-4.275-.23-1.364-.186-1.265-.71-1.352-.567-.076-.828-.36-1.08-1.124-.403-1.297-.315-1.973.339-2.519.414-.349.414-.338.185-1.418l-.076-.37.752.076c.414.032 1.46.12 2.333.185z" fill="#FF6B00"/></svg>