<svg width="49" height="49" fill="none" xmlns="http://www.w3.org/2000/svg"><path d="M42.508.49H6.492C3.18.49.49 3.268.49 6.688v35.628c0 3.416 2.69 6.194 6.002 6.194h36.016c3.312 0 6.002-2.778 6.002-6.198V6.688c0-3.42-2.69-6.198-6.002-6.198zm3.003 41.822c0 1.71-1.347 3.096-3.004 3.096H6.493c-1.657 0-3.004-1.391-3.004-3.096V6.688c0-1.71 1.347-3.096 3.003-3.096h36.016c1.656 0 3.003 1.391 3.003 3.096v35.623zM39.51 11.334H13.994c-.828 0-1.499.696-1.499 1.548 0 .853.671 1.549 1.5 1.549h25.509c.828 0 1.5-.691 1.5-1.549.004-.852-.667-1.548-1.495-1.548zm0 7.747H13.994c-.828 0-1.499.69-1.499 1.548 0 .853.671 1.548 1.5 1.548h25.509c.828 0 1.5-.695 1.5-1.548.004-.858-.667-1.548-1.495-1.548zm0 7.742H13.994c-.828 0-1.499.695-1.499 1.548 0 .853.671 1.548 1.5 1.548h25.509c.828 0 1.5-.69 1.5-1.548 0-.857-.667-1.548-1.495-1.548zm0 7.746H13.994c-.828 0-1.499.691-1.499 1.549 0 .852.671 1.548 1.5 1.548h25.509c.828 0 1.5-.69 1.5-1.548.004-.858-.667-1.549-1.495-1.549zM7.992 14.43h3.004v-3.096H7.992v3.097zm0 7.747h3.004v-3.096H7.992v3.096zm0 7.742h3.004v-3.096H7.992v3.096zm0 7.747h3.004V34.57H7.992v3.096z" fill="#FF6B00"/></svg>