<svg width="44" height="51" fill="none" xmlns="http://www.w3.org/2000/svg"><path d="M20.982 47.628s2.49 1.427.092 3.278c-1.793-.016-11.737.017-11.737.017s-7.694-.755-8.466-9.985c0-5.934-.041-30.785-.041-30.785S1.361 1.355 9.171.077l26.47.042s7.685.863 8.29 10.532c0 3.262.042 26.203.042 26.203s-1.303 8.01-11.395 14.052c.016-.016-2.939.017-2.939.017s-1.145-.357-1.187-1.926c-.041-1.56.042-6.706.042-6.706s.49-5.727 6.175-6.781h6.258l.042-25.315s-.548-6.258-5.536-6.798c-4.706-.041-25.805 0-25.805 0s-5.196.15-5.636 7.105c-.016 5.254-.058 29.988-.058 29.988s.299 6.515 5.686 7.138c5.13.033 11.362 0 11.362 0zm18.916-8.782h-5.403s-2.673.756-2.996 3.843l.041 4.897.64.075s4.083-2.805 7.718-8.815z" fill="#FF6B00"/><path d="M33.35 13.672a1.987 1.987 0 01-1.993 1.992H14.235a1.987 1.987 0 01-1.992-1.992c0-1.103.888-1.992 1.992-1.992h17.122c1.096 0 1.992.889 1.992 1.992zm.024 11.529a1.987 1.987 0 01-1.992 1.992H14.26a1.987 1.987 0 01-1.992-1.992c0-1.104.889-1.992 1.992-1.992h17.123c1.096 0 1.992.888 1.992 1.992zM23.48 36.788a2.075 2.075 0 01-2.074 2.075h-7.039a2.076 2.076 0 010-4.15h7.039a2.065 2.065 0 012.075 2.075z" fill="#FF6B00"/></svg>