<svg width="80" height="53" fill="none" xmlns="http://www.w3.org/2000/svg"><path d="M31.21 41.738h23a5 5 0 005-5v-9.757c0-.675.547-1.223 1.222-1.223h9.6a1.2 1.2 0 01.921.432l.007.008 7.098 8.549.008.01c.179.215.277.485.277.764v5.916c0 .166.135.301.301.301.67 0 1.215.552 1.215 1.223v5.598c0 .67-.544 1.214-1.215 1.214h-1.313c-.76 0-1.422.475-1.876 1.084a5.047 5.047 0 01-.507.584.01.01 0 01-.007.003.01.01 0 00-.007.002 5.292 5.292 0 01-7.491 0 .01.01 0 00-.007-.002.01.01 0 01-.007-.003 5.373 5.373 0 01-.509-.59c-.451-.607-1.112-1.078-1.868-1.078H44.67c-.76 0-1.422.475-1.876 1.084a5.047 5.047 0 01-.507.584.01.01 0 01-.007.003.01.01 0 00-.007.002 5.292 5.292 0 01-7.49 0 .01.01 0 00-.008-.002.01.01 0 01-.007-.003 5.302 5.302 0 01-.504-.584c-.451-.608-1.11-1.084-1.868-1.084H31.21c-.67 0-1.222-.544-1.222-1.214V42.96c0-.675.547-1.223 1.222-1.223zl7.13-20.38h-.407a.407.407 0 00-.408.407v6.169c0 .45.365.815.815.815h8.353c.45 0 .815-.365.815-.815v-5.761a.815.815 0 00-.815-.815H38.34zm14.668-16.693c0-1.14-.925-2.065-2.066-2.065h-2.591a2.066 2.066 0 100 4.131h2.591a2.066 2.066 0 002.066-2.066zm-7.538 4.743a.004.004 0 01-.004.004h-.403a.407.407 0 00-.408.408v6.16c0 .45.365.815.815.815h8.353c.45 0 .815-.365.815-.815V30.6a.815.815 0 00-.815-.815h-8.349a.004.004 0 00-.004.004zm7.538 3.695a2.07 2.07 0 00-2.07-2.07h-2.583a2.07 2.07 0 000 4.14h2.583a2.07 2.07 0 002.07-2.07zL26.883 21.358h-.407a.407.407 0 00-.408.407v6.169c0 .45.365.815.815.815h8.344c.45 0 .815-.365.815-.815v-5.761a.815.815 0 00-.815-.815h-8.344zM34.42 25.045c0-1.14-.925-2.065-2.066-2.065h-2.591a2.066 2.066 0 000 4.131h2.59a2.066 2.066 0 002.067-2.066zm-7.538 4.743a.004.004 0 01-.004.004h-.403a.407.407 0 00-.408.408v6.16c0 .45.365.815.815.815h8.344c.45 0 .815-.365.815-.815V30.6a.815.815 0 00-.815-.815h-8.34a.004.004 0 00-.004.004zm7.538 3.695a2.07 2.07 0 00-2.07-2.07h-2.583a2.07 2.07 0 000 4.14h2.583a2.07 2.07 0 002.07-2.07zL15.654 21.358h8.352c.45 0 .815.365.815.815v5.761c0 .45-.365.815-.815.815h-8.352a.815.815 0 01-.815-.815v-6.168c0-.225.182-.408.407-.408h.408zm-11.23-8.438c0-1.14-.924-2.065-2.065-2.065h-2.591a2.066 2.066 0 000 4.131h2.59a2.066 2.066 0 002.067-2.066zm-7.537 4.743c0 .002.002.004.004.004h8.348c.45 0 .815.365.815.815v5.753c0 .45-.365.815-.815.815h-8.352a.815.815 0 01-.815-.815v-6.169c0-.225.182-.407.407-.407h.404c.002 0 .004.002.004.004zm7.538 3.695a2.07 2.07 0 00-2.07-2.07h-2.583a2.07 2.07 0 000 4.14h2.583a2.07 2.07 0 002.07-2.07zm-7.538 4.58h8.352c.45 0 .815.365.815.815v5.761c0 .45-.365.815-.815.815h-8.352a.815.815 0 01-.815-.815v-5.76c0-.451.365-.816.815-.816zm7.538 3.696a2.066 2.066 0 00-2.066-2.066h-2.591a2.066 2.066 0 100 4.131h2.59a2.065 2.065 0 002.067-2.065zm33.365-21.24c.641.364 1.456.14 1.82-.502l.54-.955a2.43 2.43 0 00-.914-3.31L30.387.073a.15.15 0 00-.204.056.15.15 0 01-.26 0 .15.15 0 00-.204-.056L2.111 15.75a2.43 2.43 0 00-.915 3.31l.132.232a2.164 2.164 0 002.952.815c1.442-.82 3.233.222 3.233 1.881v26.598a1.626 1.626 0 003.252 0V19.331a5 5 0 012.53-4.348l14.29-8.114a5 5 0 014.937 0l16.26 9.23a5 5 0 012.531 4.348v13.065a1.626 1.626 0 103.252 0V21.678a1.333 1.333 0 011.992-1.16zM76.444 46.89c.038.25.245.447.498.447a.48.48 0 00.48-.48V44.88a.698.698 0 00-.697-.698c-.603 0-.959.75-.706 1.298.204.44.35.912.425 1.41zm-10.385-.61c.248-.913-.349-2.105-1.296-2.105H44.971c-.95 0-1.554 1.198-1.305 2.115.153.56.625 1.038 1.206 1.038H64.85c.583 0 1.056-.484 1.208-1.047zm6.588-.052a2.055 2.055 0 00-1.467-.603 2.07 2.07 0 00-1.467.603 2.07 2.07 0 00-.603 1.459 2.055 2.055 0 002.07 2.07 2.07 2.07 0 001.467-.603 2.08 2.08 0 000-2.926zm-38.908-.842c.248-.512-.086-1.211-.654-1.211a.66.66 0 00-.66.66v2.08c0 .229.184.413.412.413a.438.438 0 00.426-.383 5.264 5.264 0 01.476-1.56zm6.256.842a2.056 2.056 0 00-1.467-.603c-.57 0-1.092.228-1.459.603a2.036 2.036 0 00-.603 1.459c0 .57.228 1.092.603 1.467.367.375.888.603 1.459.603a2.07 2.07 0 001.467-.603 2.075 2.075 0 000-2.926zm35.911-7.937H64.27a.815.815 0 01-.815-.814v-6.772c0-.45.365-.815.815-.815h4.785a.847.847 0 000-1.695h-2.417a5 5 0 00-5 5v3.543a5 5 0 005 5h7.537c.952 0 1.723-.771 1.723-1.723V38.3c0-.005.004-.009.008-.009zm-2.236-5.026a4.851 4.851 0 00-3.734-1.753H67.66a2.575 2.575 0 100 5.15h7.731a.515.515 0 00.397-.844l-2.118-2.553z" fill="#FF6B00"/></svg>