<svg width="46" height="47" fill="none" xmlns="http://www.w3.org/2000/svg"><path d="M23.184.755c-.662.3-1.348.972-1.605 1.584-.147.324-.282.42-.98.647-1.69.528-3.001 1.344-4.288 2.651-1.2 1.236-2.278 2.867-2.89 4.379-.172.42-.246.491-.49.443-.442-.084-.834.3-.92.9l-.073.516 1.127 1.032 1.127 1.02-.33.419c-.748.96-.993 2.399-.589 3.55.233.672 1.017 1.571 1.642 1.883.392.192.502.348.674.864 1.446 4.319 3.7 7.666 5.745 8.553 1.715.743 4.766.708 6.407-.072 1.973-.936 4.08-4.09 5.476-8.229.258-.767.392-.983.6-1.043.478-.108 1.287-.9 1.617-1.571.65-1.296.503-2.867-.367-3.863-.233-.276-.429-.515-.429-.552 0-.024.527-.467 1.164-.983 1.225-.972 1.298-1.092 1.03-1.823-.087-.252-.258-.42-.589-.54-.428-.168-.551-.324-1.127-1.427-1.053-2.016-2.61-3.827-4.214-4.906-.674-.456-2.12-1.128-2.818-1.308-.416-.108-.526-.204-.661-.564-.086-.252-.404-.671-.698-.96a3.222 3.222 0 00-3.541-.6zm2.058 1.872c.184.144.38.456.453.695.062.252.123 1.716.123 3.287v2.855h1.837V7.125c0-1.907.037-2.339.171-2.339.086 0 .613.216 1.152.48 1.225.6 2.708 1.931 3.565 3.19.6.876 1.813 3.131 1.715 3.216-.025.012-.809.635-1.728 1.367l-1.677 1.344h-13.28L16.19 13.11c-.772-.696-1.396-1.344-1.396-1.428 0-.072.355-.84.796-1.703.87-1.716 1.752-2.843 2.94-3.79.686-.54 2.29-1.404 2.622-1.404.098 0 .134.66.134 2.34v2.338h1.96V6.525c0-3.166.061-3.55.624-3.946.393-.264.993-.24 1.373.048zm8.159 12.907c.49.612.477 1.703-.025 2.279-.171.18-.514.372-.87.456l-.588.144-.588 1.751c-.624 1.86-1.678 4.138-2.34 5.086-.6.864-1.703 1.956-2.254 2.243-.404.216-.759.264-2.021.3-.882.024-1.752-.012-2.034-.084-1.862-.492-3.724-3.143-5.218-7.473l-.65-1.871-.477-.06c-.576-.084-1.14-.576-1.299-1.164-.147-.528.025-1.271.355-1.595l.245-.24.588.444c.319.24.686.467.833.504.135.023 3.48.036 7.424.023l7.179-.036.6-.503c.33-.276.661-.504.747-.516.074 0 .258.144.393.312zM8.765 27.385c-.71 1.403-.968 1.5-2.548.924l-.919-.348-1.36 1.32-1.372 1.318.356.948c.575 1.56.502 1.787-.944 2.483l-1.03.505v3.79l.993.468c.943.456 1.323.816 1.335 1.284 0 .084-.147.6-.33 1.151l-.344.984 1.372 1.343 1.372 1.332 1.054-.372c.992-.348 1.078-.36 1.482-.192.355.144.49.324.907 1.188l.477 1.02h3.884l.515-1.02c.698-1.391.907-1.475 2.4-.984l1.079.36 1.347-1.331 1.36-1.32-.367-1.055c-.503-1.464-.417-1.668 1.004-2.351l1.041-.504v-3.803l-1.016-.456c-.834-.383-1.042-.54-1.213-.887-.209-.42-.196-.444.171-1.463l.38-1.032-1.36-1.344-1.372-1.343-1.005.335c-.563.18-1.09.324-1.176.324-.477-.012-.845-.384-1.31-1.307l-.478-.972H9.28l-.514 1.007zm3.638 1.74c.392.767.466.84 1.005 1.031a9.14 9.14 0 011.016.408c.417.228.429.216 1.311-.084l.907-.312.49.492.502.48-.33.911c-.282.756-.307.96-.184 1.104.085.096.281.515.428.935.257.72.294.756 1.14 1.2l.881.455v1.38l-.918.444c-.625.3-.919.516-.919.648 0 .12-.171.564-.368.983l-.367.756.306.852.319.852-.503.48-.49.491-.918-.311c-.784-.264-.956-.288-1.14-.156-.11.084-.551.276-.98.42-.76.251-.772.263-1.188 1.08l-.43.827h-1.468l-.428-.828c-.393-.767-.466-.84-1.005-1.032a9.101 9.101 0 01-1.005-.407c-.416-.216-.428-.216-1.164.06-.404.156-.82.288-.931.288-.11 0-.392-.204-.65-.456l-.44-.444.318-.888c.306-.84.318-.887.123-1.26-.123-.203-.307-.647-.442-.97-.208-.553-.281-.637-1.066-1.02l-.845-.42-.036-.684-.037-.695.918-.444c.784-.372.932-.504 1.005-.816a6 6 0 01.392-.971l.306-.624-.318-.84-.319-.828.54-.515.539-.516.857.311c.87.312.87.312 1.262.096.22-.132.686-.324 1.03-.432.612-.192.649-.228 1.004-1.031l.38-.828h1.482l.429.828z" fill="#FF6B00"/><path d="M9.708 31.74c-1.482.527-2.401 1.319-3.05 2.663-.356.731-.38.887-.38 2.05 0 1.164.024 1.32.392 2.064a5.063 5.063 0 002.462 2.411c.76.36.92.384 2.107.384 1.189 0 1.348-.024 2.108-.384 1.14-.528 1.85-1.2 2.4-2.291.442-.876.454-.96.454-2.171 0-1.176-.025-1.332-.392-2.076a5.064 5.064 0 00-2.463-2.41c-.698-.312-.992-.384-1.923-.409-.82-.036-1.261.012-1.715.168zm2.536 1.859c.65.192 1.617 1.056 1.875 1.68.33.79.294 1.739-.11 2.542-1.09 2.184-4.142 2.303-5.416.216-.857-1.38-.514-3.035.834-4.018.759-.552 1.825-.708 2.817-.42zm16.024-2.951c-.76.744-1.727 1.356-2.622 1.632-1.482.467-3.259.12-4.398-.864-.257-.216-.477-.372-.502-.348-.073.109-.563 1.524-.563 1.656 0 .084.515.384 1.151.671.637.289 1.176.588 1.2.66.062.192.895.36 1.753.36 1.544 0 3.124-.588 4.57-1.703l.783-.6 1.446.372c4.925 1.236 8.931 4.09 10.793 7.713.55 1.068 1.017 2.58 1.14 3.659l.085.755H18.786l-.723.684-.71.696-1.14-.396c-.625-.204-1.176-.384-1.213-.384-.074 0-.698 1.116-.698 1.26 0 .036 6.921.06 15.374.06H45.05v-1.236c0-3.79-1.335-6.825-4.275-9.692-2.058-2.003-4.582-3.49-7.632-4.486-1.14-.372-3.798-1.02-4.19-1.02-.085 0-.391.251-.685.551z" fill="#FF6B00"/></svg>