<svg width="41" height="41" fill="none" xmlns="http://www.w3.org/2000/svg"><path d="M13.943 3.112c-1.854.313-2.904 1.553-3.026 3.563l-.056.972-.637.178c-1.206.347-2.11 1.319-2.345 2.525-.056.324-.112 1.351-.112 2.267v1.664l-.435.548c-.827 1.05-1.128 2.367-1.128 4.925v1.441H5.165c-1.206 0-2.044-.212-2.412-.603-.359-.38-.414-1.039-.135-1.486.313-.492.659-.692 1.418-.815 1.106-.18 1.497-.927.86-1.676-.29-.357-.312-.357-1.038-.313-1.374.101-2.558.872-3.139 2.056-.268.536-.268.592-.302 4.155-.033 4.054.023 4.545.693 5.562.424.637 1.273 1.25 2.133 1.553.347.122 1.039.223 1.81.257l1.25.044.034 2.256c.034 2.022.067 2.313.301 2.882.347.883 1.162 1.754 2.055 2.19 1.441.714.972.692 15.716.692 13.112 0 13.403 0 13.995-.224.737-.279 1.474-.982 1.853-1.787l.29-.614.034-11.895c.022-8.701 0-12.019-.089-12.342-.28-.95-.994-1.553-2.3-1.944-1.866-.558-22.719-6.02-23.166-6.076a4.469 4.469 0 00-1.083.045zm12.644 5.015c6.21 1.653 11.415 3.06 11.582 3.127.414.19.604.682.425 1.106-.29.715.39.681-13.314.681-11.214 0-14.755.067-15.313.29-.168.056-.19-.055-.19-1.194 0-1.464.156-1.91.77-2.268.28-.156.57-.212 1.173-.212.436.01 5.384.648 10.99 1.418 7.171.983 10.276 1.374 10.455 1.296.637-.235.838-1.14.346-1.62-.145-.156-.335-.279-.413-.279-.078-.01-4.646-.625-10.142-1.374L12.96 7.725l-.034-.682c-.056-1.15.358-1.765 1.296-1.932.234-.045.57-.056.748-.023.191.034 5.418 1.397 11.617 3.039zM38.404 35.19a2.74 2.74 0 01-.514.57l-.313.234H24.375c-10.532 0-13.336-.034-13.838-.145-.916-.212-1.642-.737-1.989-1.419-.268-.536-.279-.648-.279-2.513v-1.954l3.184-.056c3.16-.056 3.183-.056 3.82-.357a4.238 4.238 0 002.021-1.977c.335-.693.358-.816.358-1.966 0-1.162-.022-1.274-.358-1.966-.469-.95-1.318-1.765-2.211-2.122-.637-.246-.816-.269-3.787-.302l-3.116-.033.067-1.922c.034-1.105.123-2.11.213-2.367.212-.67.915-1.307 1.708-1.564.637-.201 1.296-.213 14.431-.28 7.562-.033 13.794-.1 13.85-.145.045-.055.1 4.412.123 9.93.022 9.382.01 10.041-.168 10.354zM8.772 23.205c5.875.056 5.74.045 6.322.693.491.525.625.971.58 1.82-.044.96-.401 1.598-1.094 1.955-.424.212-.637.223-5.328.223-3.105 0-5.048-.045-5.316-.123-.581-.156-1.274-.804-1.419-1.307-.056-.234-.112-1.15-.112-2.044V22.78l.48.19c.403.157 1.24.19 5.887.235z" fill="#FF6B00"/><path d="M12.793 24.97c-.447.458-.458.927-.011 1.374.447.447.916.436 1.374-.011.29-.302.335-.402.279-.748-.045-.224-.168-.503-.28-.615-.11-.111-.39-.234-.614-.279-.346-.056-.446-.011-.748.279z" fill="#FF6B00"/></svg>