<svg width="65" height="59" fill="none" xmlns="http://www.w3.org/2000/svg"><path d="M26.636 4.532c-.774.163-1.188.66-1.489 1.781l-.23.86-.884.067c-.49.026-1.258.124-1.717.203l-.827.15-.508-.833c-.594-.969-1.013-1.295-1.71-1.29-.349-.004-.954.284-2.761 1.283-1.282.713-2.441 1.391-2.589 1.52-.323.285-.566 1.108-.463 1.562.042.18.266.644.499 1.033l.417.707-.6.649c-.322.363-.812.974-1.09 1.382l-.497.721-.987-.22c-1.067-.251-1.36-.207-1.974.28-.283.217-.341.393-1.056 2.933-.711 2.53-.754 2.731-.659 3.173.157.716.437.971 1.5 1.323l.92.303.058.915c.033.503.135 1.34.222 1.858l.166.932-.673.371c-.37.205-.746.475-.848.605-.237.341-.397 1.017-.316 1.388.042.18.673 1.349 1.416 2.604 1.062 1.825 1.409 2.334 1.738 2.534.635.395 1.115.366 1.958-.094l.725-.401.654.58.657.57.774-.04c.954-.037 1.898.048 2.674.256.567.152.604.139 1.295-.26.386-.223.671-.45.627-.495-.033-.043-.351-.241-.703-.436-.77-.442-1.898-.677-3.275-.698l-.93-.013-.688-.702c-.38-.383-.731-.712-.784-.726-.052-.015-.535.238-1.091.55l-.995.565-1.245-2.064-1.247-2.054 1.086-.654 1.093-.64-.31-1.319c-.27-1.174-.402-2.57-.389-3.96l.003-.47-1.249-.335-1.258-.337.618-2.308.619-2.307 1.3.348 1.3.349.695-1.084a18.18 18.18 0 011.404-1.839c.394-.422.869-.936 1.06-1.143l.35-.39-.707-1.133-.697-1.13 2.13-1.24 2.13-1.238.7 1.21.698 1.21 1.475-.302c.819-.163 2.038-.308 2.718-.328l1.243-.026.403-1.376.402-1.376 2.375.659 2.372.67-.31 1.366-.31 1.367.92.55c1.189.723 1.78 1.162 2.705 2.029l.752.718 1.21-.699 1.21-.698 1.228 2.127 1.229 2.128-1.167.62-1.166.62.333 1.315c.349 1.386.484 2.389.532 3.762l.021.804.738-.365c.401-.196.761-.448.79-.552.09-.336-.06-1.96-.279-3.031l-.214-1.047.812-.513c.889-.548 1.058-.762 1.17-1.474.078-.586.089-.583-1.515-3.283-1.05-1.787-1.391-2.272-1.702-2.456-.613-.356-1.146-.296-2.084.228-.447.24-.848.436-.9.422-.042-.011-.34-.237-.66-.514-.322-.266-.92-.719-1.329-.997l-.763-.508.214-.966c.26-1.178.18-1.637-.409-2.166-.381-.338-.515-.385-2.98-1.046-2.465-.66-2.604-.687-3.104-.584z" fill="#FF6B00"/><path d="M50.06 15.9c-1.842-.089-3.348.373-4.857 1.475-1.41 1.027-2.209 2.285-2.657 4.21l-.294 1.226-11.195 6.375L19.86 35.57l-1.234-.263c-1.937-.406-3.193-.248-4.763.579a6.58 6.58 0 00-2.301 9.679c.913 1.29 2.176 2.157 3.783 2.576 1.185.318 1.785.344 3.064.102.803-.145 1.203-.296 2.004-.767 1.675-.967 2.61-2.19 3.101-4.025l.265-.985 11.217-6.38 11.22-6.38 1.489.4c1.324.343 1.584.38 2.406.33 2.455-.14 4.802-1.602 5.986-3.713.556-.986.91-2.307.919-3.43.02-1.545.297-1.572-3.103.338-1.654.928-3.168 1.714-3.377 1.737a1.98 1.98 0 01-1.371-.334c-.36-.253-1.317-1.882-1.383-2.349a1.67 1.67 0 01.354-1.32c.124-.17 1.54-1.05 3.24-2.021l3.022-1.72-.39-.306c-.943-.76-2.627-1.356-3.947-1.418zM18.667 39.309c.733.454 1.324 1.478 1.333 2.368.067 3.02-4.007 4.13-5.517 1.501-.716-1.226-.468-2.7.614-3.634.516-.458 1.007-.653 1.719-.709.734-.051 1.195.072 1.851.474zm5.81-25.375c-1.26 0-2.386.305-3.54.962-2.627 1.5-3.962 4.424-3.364 7.394.212 1.057 1.03 2.659 1.752 3.403 1.963 2.032 4.8 2.725 7.454 1.84 1.743-.589 3.216-1.892 4.05-3.579 1.522-3.076.427-6.922-2.518-8.891-.907-.603-2.72-1.134-3.834-1.13zm2.665 2.344c1.336.763 2.362 2.218 2.645 3.721.652 3.524-2.364 6.684-5.954 6.24-2.73-.339-4.793-2.667-4.768-5.404.017-2.917 2.443-5.257 5.434-5.265.785.008 1.928.314 2.643.708z" fill="#FF6B00"/><path d="M52.23 31.88c-.169.045-.488.229-.697.42-.221.2-.44.343-.503.326a8.368 8.368 0 01-.716-.349c-.906-.479-2.84-1.188-3.47-1.267-.489-.064-.611-.029-1.215.383l-.672.45.733.286c2.655 1.037 3.991 1.631 4.653 2.056.425.26.79.492.821.5.032.009.311-.197.616-.453.294-.258.574-.464.616-.453.147.04.965 1.057.934 1.172-.017.063-.26.301-.547.528l-.507.426.346.722c.44.916.701 1.66.88 2.506.072.357.136.666.143.68.008.013.347.048.755.078.718.047.746.066.732.286-.036.89-.07 1.23-.13 1.28-.032.037-.31.03-.605-.004-.305-.037-.624-.022-.728.03-.106.061-.294.471-.485 1.016a10.856 10.856 0 01-.855 1.805c-.29.496-.526.916-.511.942.018.017.214.249.447.514l.403.468-.588.517c-.655.555-.61.556-1.199-.141l-.3-.35-.952.452a11.72 11.72 0 01-2.018.695l-1.073.23-.053.491c-.028.274-.048.56-.037.642.007.103-.194.14-.636.11a10.506 10.506 0 00-.821-.04c-.148.006-.177-.137-.142-.645l.05-.65-.958-.324a10.324 10.324 0 01-1.816-.857 62.503 62.503 0 01-1.024-.623c-.107-.063-.274.016-.512.234-.196.183-.401.364-.447.408-.056.041-.331-.19-.623-.527l-.522-.611.438-.377c.235-.207.444-.398.45-.42.005-.02-.195-.49-.444-1.029a11.178 11.178 0 01-.672-2.023c-.127-.574-.272-1.04-.338-1.046-.055-.004-.35-.038-.655-.075l-.54-.077.043-.416c.02-.241.054-.58.06-.77l.025-.342.663.043.663.043.276-.736c.154-.408.58-1.328.956-2.059.373-.72.673-1.337.658-1.363-.016-.027-.543.18-1.17.462l-1.135.505-.363.768-.36.757-.424-.057c-.554-.07-.989.084-1.166.407-.087.157-.195.938-.264 1.908-.147 2.062-.082 2.237.868 2.424l.64.127.099.431c.049.238.212.72.345 1.06l.254.607-.327.339c-.442.432-.582.956-.34 1.314.094.149.62.784 1.163 1.402 1.226 1.384 1.498 1.502 2.24.993l.48-.32.836.403c.447.221.922.46 1.032.513.16.076.202.21.173.529-.044.415.29 1.1.562 1.174.262.07 3.135.255 3.435.223.465-.055.782-.442.872-1.07.069-.51.069-.51.54-.632.254-.067.723-.222 1.038-.35l.568-.231.344.35c.36.378.786.548 1.156.468.12-.024.783-.532 1.467-1.113 1.6-1.358 1.745-1.77.947-2.612l-.297-.316.285-.52c.152-.273.373-.72.485-.97.195-.477.195-.477.697-.42.555.069 1.218-.225 1.314-.582.081-.304.242-3.004.206-3.373-.052-.52-.458-.808-1.186-.857-.342-.024-.616-.052-.62-.076-.008-.013-.07-.243-.145-.51a8.644 8.644 0 00-.329-.954l-.2-.47.457-.406c.506-.46.65-.826.49-1.24-.096-.272-1.58-2.03-2.141-2.54-.343-.316-.465-.36-.876-.257z" fill="#FF6B00"/><path d="M45.857 35.365c-2.368.197-4.292 1.964-4.547 4.177-.143 1.244.048 2.127.71 3.18 1.605 2.566 5.14 3.052 7.38 1.023 1.466-1.316 1.967-3.52 1.225-5.326a5.077 5.077 0 00-1.6-2.08c-.724-.533-2.364-1.04-3.168-.974zm2.233 2.319c.605.51.991 1.085 1.17 1.797.142.566.128.742-.083 1.529-.216.807-.284.935-.718 1.38-1.193 1.221-3.175 1.32-4.434.229-1.739-1.522-1.408-4.266.64-5.28.323-.16.8-.303 1.066-.333.712-.056 1.871.277 2.36.678z" fill="#FF6B00"/></svg>