<svg width="64" height="63" fill="none" xmlns="http://www.w3.org/2000/svg"><g id="46b129656b9eb5622087139e42fe40ef 1"><g id="Group"><g id="Group_2" fill="#FF6B00"><path id="Vector" d="M32.245 1.012c-.882.402-1.796 1.302-2.14 2.123-.195.434-.375.562-1.306.868-2.254.707-4.002 1.801-5.718 3.553-1.6 1.656-3.038 3.843-3.854 5.87-.229.562-.327.658-.654.594-.588-.113-1.11.402-1.225 1.206l-.098.691 1.503 1.383 1.503 1.367-.441.562c-.997 1.287-1.323 3.216-.784 4.76.31.9 1.356 2.105 2.189 2.524.523.257.67.466.898 1.158 1.928 5.788 4.933 10.274 7.661 11.464 2.287.997 6.354.949 8.543-.097 2.63-1.254 5.44-5.482 7.301-11.03.343-1.028.523-1.318.8-1.398.637-.145 1.715-1.206 2.156-2.106.866-1.737.67-3.843-.49-5.178-.31-.37-.572-.69-.572-.74 0-.031.702-.626 1.552-1.318 1.634-1.302 1.732-1.463 1.372-2.444-.114-.337-.343-.562-.784-.723-.571-.225-.735-.434-1.502-1.913-1.405-2.702-3.48-5.13-5.62-6.576C41.638 5 39.71 4.1 38.78 3.859c-.556-.145-.702-.273-.882-.756-.115-.337-.539-.9-.93-1.286C35.707.61 33.812.289 32.244 1.012zm2.744 2.509c.245.193.507.611.605.932.081.338.163 2.3.163 4.406v3.826h2.45V9.551c0-2.557.048-3.136.228-3.136.114 0 .817.29 1.535.643 1.634.804 3.61 2.59 4.754 4.277.8 1.174 2.417 4.197 2.287 4.31-.033.016-1.079.852-2.304 1.833l-2.237 1.8H24.764l-1.846-1.704c-1.029-.933-1.861-1.8-1.861-1.914 0-.096.473-1.125 1.061-2.283 1.16-2.3 2.336-3.81 3.92-5.08.915-.725 3.055-1.882 3.496-1.882.13 0 .18.885.18 3.136v3.135h2.612v-3.94c0-4.244.082-4.759.833-5.29.523-.353 1.324-.321 1.83.065zm10.878 17.301c.654.82.637 2.283-.032 3.055-.229.241-.686.498-1.16.611l-.784.193-.784 2.347c-.832 2.492-2.238 5.547-3.12 6.818-.8 1.157-2.27 2.62-3.005 3.006-.54.29-1.013.354-2.695.402-1.177.032-2.336-.016-2.712-.112-2.483-.66-4.966-4.213-6.958-10.018l-.866-2.508-.637-.08c-.768-.113-1.52-.772-1.731-1.56-.196-.707.033-1.704.474-2.138l.326-.322.784.595c.424.322.915.627 1.11.675.18.033 4.64.049 9.899.033l9.571-.049.8-.675c.441-.37.882-.676.997-.691.1 0 .344.192.523.418z"/><path id="Vector_2" d="M13.02 36.707c-.948 1.882-1.29 2.01-3.398 1.238l-1.225-.466-1.813 1.769-1.829 1.768.474 1.27c.767 2.09.67 2.396-1.258 3.328l-1.373.677v5.08L3.921 52c1.258.611 1.764 1.093 1.78 1.72 0 .114-.195.805-.44 1.544l-.458 1.319 1.83 1.8 1.828 1.785 1.405-.498c1.323-.466 1.438-.483 1.976-.257.474.193.654.434 1.21 1.592l.636 1.367h5.179l.686-1.367c.931-1.865 1.21-1.978 3.201-1.319l1.438.483 1.796-1.785 1.814-1.768-.49-1.415c-.67-1.962-.556-2.235 1.339-3.152l1.388-.675v-5.098l-1.356-.611c-1.11-.515-1.388-.724-1.617-1.19-.277-.563-.26-.595.229-1.962l.506-1.382-1.813-1.801-1.83-1.801-1.339.45c-.751.241-1.453.434-1.568.434-.637-.017-1.127-.515-1.748-1.753l-.636-1.303h-5.161l-.686 1.35zm4.85 2.332c.524 1.029.621 1.126 1.34 1.383.425.144 1.045.386 1.356.547.555.305.571.289 1.748-.113l1.209-.418.653.66.67.642-.442 1.222c-.375 1.013-.408 1.286-.245 1.48.115.128.376.69.572 1.253.343.965.391 1.013 1.519 1.608l1.176.61v1.85l-1.225.595c-.833.402-1.225.692-1.225.868 0 .161-.229.756-.49 1.319l-.49 1.013.408 1.142.425 1.142-.67.643-.653.659-1.225-.418c-1.045-.354-1.274-.386-1.52-.209-.147.113-.735.37-1.306.563-1.013.337-1.03.353-1.585 1.447l-.572 1.11h-1.96l-.57-1.11c-.524-1.029-.621-1.126-1.34-1.383a12.076 12.076 0 01-1.34-.547c-.555-.289-.571-.289-1.552.08-.539.21-1.094.387-1.241.387-.147 0-.523-.273-.866-.611l-.588-.595.425-1.19c.408-1.126.424-1.19.163-1.688-.163-.274-.409-.868-.588-1.302-.278-.74-.376-.853-1.422-1.367l-1.127-.563-.048-.916-.05-.933 1.225-.595c1.045-.498 1.242-.675 1.34-1.093.065-.257.293-.852.523-1.302l.408-.836-.424-1.126-.425-1.11.718-.69.72-.692 1.143.417c1.16.419 1.16.419 1.682.129.294-.176.915-.434 1.373-.58.816-.257.865-.305 1.339-1.382l.506-1.11H17.3l.572 1.11z"/><path id="Vector_3" d="M14.277 42.544c-1.976.708-3.201 1.769-4.067 3.57-.474.98-.506 1.19-.506 2.75s.032 1.768.522 2.765a6.768 6.768 0 003.284 3.232c1.012.482 1.225.515 2.81.515 1.584 0 1.796-.033 2.809-.515 1.52-.708 2.466-1.608 3.201-3.072.588-1.173.604-1.286.604-2.91 0-1.576-.032-1.784-.523-2.782a6.768 6.768 0 00-3.283-3.231c-.93-.418-1.323-.514-2.564-.547-1.094-.048-1.682.016-2.287.225zm3.382 2.493c.866.257 2.156 1.415 2.499 2.25.441 1.062.392 2.332-.147 3.41-1.454 2.926-5.521 3.086-7.22.289-1.144-1.85-.686-4.068 1.111-5.387 1.013-.74 2.433-.949 3.757-.562z"/><path id="Vector_4" d="M39.024 41.081c-1.013.997-2.303 1.817-3.496 2.187-1.976.627-4.345.16-5.863-1.157-.343-.29-.637-.498-.67-.466-.098.145-.751 2.041-.751 2.219 0 .112.686.514 1.535.9.85.386 1.568.788 1.6.884.083.257 1.193.483 2.337.483 2.058 0 4.165-.788 6.093-2.283l1.045-.804 1.927.498c6.567 1.657 11.908 5.483 14.39 10.34.736 1.43 1.357 3.456 1.52 4.903l.114 1.013H26.381l-.964.917-.947.932-1.52-.53c-.833-.274-1.568-.515-1.617-.515-.098 0-.931 1.495-.931 1.689 0 .047 9.229.08 20.5.08H61.4v-1.656c0-5.081-1.78-9.149-5.7-12.992-2.745-2.685-6.109-4.68-10.176-6.013-1.519-.499-5.064-1.367-5.587-1.367-.113-.001-.521.337-.913.738z"/></g></g></g></svg>