<svg width="88" height="88" fill="none" xmlns="http://www.w3.org/2000/svg"><g id="3aed225f7f220a68ec25137b0ff4262e 1" clip-path="url(#clip0_87_1075)"><g id="Group"><g id="Group_2" fill="#FF6B00"><path id="Vector" d="M36.039 11.218c-1.019.215-1.563.867-1.959 2.343l-.303 1.13-1.161.089c-.645.034-1.655.163-2.259.267l-1.087.196-.667-1.095c-.782-1.274-1.332-1.702-2.25-1.697-.458-.004-1.253.374-3.63 1.688-1.685.938-3.21 1.83-3.404 2-.425.373-.744 1.455-.609 2.053.055.236.35.847.656 1.358l.55.93-.791.853a21.796 21.796 0 00-1.433 1.818l-.654.948-1.296-.289c-1.404-.331-1.79-.272-2.597.369-.372.284-.448.515-1.388 3.855-.935 3.326-.992 3.591-.867 4.172.206.942.575 1.277 1.973 1.74l1.209.398.076 1.203c.045.662.178 1.762.292 2.443l.219 1.227-.886.487c-.485.27-.98.624-1.114.795-.312.449-.522 1.338-.415 1.825.055.237.885 1.774 1.86 3.425 1.398 2.399 1.854 3.068 2.286 3.331.836.52 1.467.482 2.575-.123l.954-.527.86.762.863.75 1.018-.053c1.255-.048 2.496.063 3.517.337.744.2.793.183 1.702-.342.508-.293.883-.592.825-.651-.044-.057-.462-.317-.925-.573-1.012-.582-2.496-.89-4.306-.918l-1.223-.017-.905-.923c-.5-.503-.961-.937-1.03-.955-.07-.019-.705.314-1.436.723l-1.307.744-1.638-2.715-1.64-2.7 1.428-.86 1.438-.841-.408-1.735c-.355-1.544-.528-3.38-.511-5.207l.003-.62-1.641-.44-1.655-.443.813-3.034.813-3.034 1.71.459 1.71.458.914-1.426a23.932 23.932 0 011.845-2.417c.518-.556 1.143-1.231 1.393-1.504l.462-.511-.93-1.491-.917-1.487 2.801-1.629 2.801-1.629.92 1.592.918 1.591 1.94-.397c1.076-.214 2.679-.405 3.573-.431l1.635-.035.53-1.81.529-1.809 3.122.867 3.12.88-.408 1.797-.408 1.798 1.21.723c1.563.951 2.34 1.528 3.556 2.668l.989.944 1.592-.919 1.591-.919 1.615 2.798 1.615 2.798-1.534.815-1.533.816.438 1.729c.458 1.822.636 3.14.7 4.947l.027 1.056.97-.479c.528-.258 1.001-.59 1.038-.727.118-.441-.078-2.577-.366-3.985l-.282-1.376 1.068-.675c1.17-.721 1.392-1.001 1.539-1.938.103-.77.117-.767-1.991-4.317-1.38-2.35-1.83-2.988-2.239-3.23-.806-.467-1.507-.389-2.74.3-.587.316-1.115.574-1.183.555-.056-.015-.449-.312-.868-.676-.424-.35-1.21-.944-1.748-1.31l-1.004-.669.282-1.27c.34-1.549.237-2.153-.538-2.848-.501-.445-.677-.507-3.918-1.375-3.242-.869-3.425-.903-4.081-.769z"/><path id="Vector_2" d="M66.84 26.167c-2.422-.117-4.403.49-6.387 1.94-1.855 1.35-2.905 3.004-3.494 5.536l-.387 1.611-14.72 8.382-14.724 8.396-1.622-.346c-2.547-.534-4.199-.327-6.263.76a8.653 8.653 0 00-3.026 12.728c1.2 1.696 2.86 2.836 4.974 3.387 1.559.418 2.348.452 4.03.134 1.055-.19 1.581-.389 2.634-1.008 2.203-1.272 3.432-2.88 4.078-5.293l.348-1.296 14.75-8.389 14.753-8.388 1.958.525c1.741.452 2.083.499 3.164.434 3.228-.184 6.314-2.107 7.87-4.882.732-1.297 1.198-3.034 1.209-4.51.027-2.032.391-2.067-4.08.444-2.174 1.22-4.166 2.254-4.44 2.284-.6.09-1.32-.088-1.803-.439-.473-.333-1.732-2.474-1.819-3.088a2.197 2.197 0 01.466-1.737c.163-.222 2.025-1.38 4.26-2.657l3.974-2.26-.512-.403c-1.24-1-3.454-1.784-5.191-1.865zm-41.281 30.78c.963.598 1.74 1.944 1.752 3.115.089 3.97-5.269 5.431-7.254 1.973-.942-1.612-.616-3.55.807-4.779.68-.602 1.324-.857 2.26-.931.965-.068 1.572.095 2.435.622z"/><path id="Vector_3" d="M33.199 23.581c-1.655 0-3.137.402-4.655 1.266-3.454 1.972-5.21 5.816-4.423 9.722.278 1.39 1.354 3.497 2.304 4.475 2.58 2.672 6.312 3.583 9.801 2.42 2.292-.775 4.229-2.488 5.326-4.707 2-4.045.562-9.101-3.312-11.69-1.192-.794-3.576-1.492-5.041-1.486zm3.505 3.083c1.756 1.003 3.105 2.916 3.477 4.893.858 4.634-3.108 8.788-7.83 8.204-3.59-.445-6.302-3.507-6.269-7.104.023-3.837 3.213-6.914 7.146-6.924 1.032.01 2.535.413 3.476.931z"/><path id="Vector_4" d="M69.693 47.18c-.222.058-.643.3-.917.552-.291.262-.579.45-.662.428-.069-.018-.487-.22-.94-.458-1.192-.63-3.735-1.563-4.564-1.667-.643-.083-.803-.037-1.598.503l-.883.592.963.376c3.492 1.365 5.249 2.145 6.119 2.704.559.341 1.038.647 1.08.658.041.011.409-.26.81-.596.386-.34.754-.61.81-.595.192.051 1.268 1.389 1.227 1.54-.022.084-.342.397-.718.695l-.668.56.455.95c.58 1.204.923 2.183 1.157 3.295.096.47.18.876.19.893.01.018.456.063.991.103.944.061.982.086.963.377-.047 1.17-.093 1.615-.17 1.683-.042.048-.41.038-.796-.006-.401-.048-.82-.028-.957.039-.14.08-.388.62-.639 1.336-.218.65-.728 1.726-1.124 2.374-.38.652-.692 1.204-.672 1.24.024.02.282.326.588.674l.53.615-.773.68c-.86.73-.802.732-1.577-.185l-.394-.46-1.251.594c-.695.331-1.883.737-2.654.915l-1.411.302-.07.646c-.037.36-.064.736-.048.844.008.136-.256.183-.837.145-.464-.035-.944-.06-1.08-.053-.194.007-.232-.18-.186-.848l.066-.854-1.26-.427c-.716-.25-1.73-.714-2.388-1.127a82.233 82.233 0 01-1.347-.82c-.14-.082-.36.022-.673.308-.257.241-.527.479-.587.537-.074.054-.436-.25-.82-.693l-.687-.804.577-.496c.309-.272.584-.523.59-.55.008-.028-.255-.646-.583-1.354-.327-.709-.73-1.91-.883-2.661-.167-.754-.358-1.367-.444-1.376-.073-.004-.46-.049-.861-.098l-.712-.102.058-.545c.026-.318.071-.765.08-1.013l.031-.45.872.056.872.056.363-.966c.203-.538.763-1.747 1.257-2.708.491-.947.885-1.758.865-1.793-.02-.035-.713.237-1.537.608l-1.493.663-.478 1.01-.474.997-.556-.076c-.73-.091-1.301.11-1.534.536-.114.206-.256 1.232-.347 2.508-.194 2.712-.108 2.942 1.142 3.188l.842.166.129.567c.064.313.278.947.454 1.393l.333.799-.43.446c-.58.568-.765 1.258-.447 1.727.125.197.817 1.032 1.53 1.844 1.612 1.82 1.97 1.976 2.946 1.307l.63-.422 1.1.53c.587.291 1.212.606 1.356.674.21.1.266.278.228.696-.058.546.38 1.448.739 1.544.345.092 4.122.336 4.517.294.611-.073 1.029-.582 1.146-1.408.091-.67.091-.67.71-.83a13.62 13.62 0 001.366-.462l.746-.303.452.461c.474.497 1.034.72 1.52.615.158-.032 1.03-.7 1.93-1.464 2.105-1.786 2.294-2.326 1.245-3.434l-.391-.416.375-.682c.2-.36.49-.948.638-1.278.257-.626.257-.626.917-.552.729.092 1.601-.295 1.727-.764.107-.4.319-3.95.271-4.435-.068-.683-.602-1.063-1.56-1.127-.45-.032-.809-.07-.815-.1-.01-.018-.092-.32-.19-.672-.098-.35-.286-.919-.433-1.254l-.263-.617.602-.534c.664-.605.853-1.087.643-1.63-.125-.359-2.078-2.67-2.815-3.34-.45-.417-.612-.475-1.151-.339z"/><path id="Vector_5" d="M61.312 51.762c-3.114.26-5.643 2.582-5.98 5.493-.186 1.635.065 2.795.935 4.181 2.11 3.374 6.758 4.013 9.705 1.344 1.926-1.73 2.585-4.627 1.61-7.002-.415-1.043-1.23-2.088-2.105-2.737-.951-.699-3.108-1.365-4.165-1.279zm2.937 3.048c.795.672 1.303 1.428 1.539 2.364.185.744.167.976-.11 2.01-.284 1.062-.374 1.23-.945 1.816-1.568 1.605-4.175 1.734-5.83.3-2.286-2.001-1.851-5.61.84-6.943.427-.21 1.053-.398 1.404-.437.936-.074 2.46.364 3.102.89z"/></g></g></g><defs><clipPath id="clip0_87_1075"><path fill="#fff" transform="rotate(15 9.255 70.298)" d="M0 0h71.516v71.516H0z"/></clipPath></defs></svg>