<svg width="57" height="57" fill="none" xmlns="http://www.w3.org/2000/svg"><g id="03847d5a7b67b24cea67d7d95fefec5f 1"><g id="Group"><g id="Group_2" fill="#FF6B00"><path id="Vector" d="M19.385 4.326c-2.578.435-4.038 2.159-4.208 4.953l-.078 1.351-.885.249c-1.677.482-2.935 1.832-3.26 3.51-.078.45-.156 1.878-.156 3.152v2.313l-.605.761c-1.15 1.46-1.568 3.292-1.568 6.848v2.003H7.18c-1.677 0-2.842-.295-3.354-.838-.498-.529-.576-1.445-.188-2.066.435-.684.916-.963 1.973-1.134 1.537-.248 2.08-1.289 1.196-2.329-.404-.497-.435-.497-1.444-.435-1.91.14-3.557 1.211-4.364 2.858-.373.745-.373.823-.42 5.776-.046 5.637.031 6.32.963 7.733.59.885 1.77 1.739 2.966 2.158.481.171 1.444.31 2.515.358l1.74.062.046 3.136c.047 2.811.093 3.215.419 4.007.482 1.227 1.615 2.438 2.857 3.043 2.003.994 1.35.963 21.848.963 18.23 0 18.634 0 19.456-.31 1.025-.389 2.05-1.367 2.578-2.485l.403-.854.047-16.538c.03-12.096 0-16.708-.124-17.158-.388-1.32-1.383-2.159-3.199-2.702-2.593-.776-31.584-8.37-32.205-8.448-.387-.046-1.07-.015-1.505.063zm17.577 6.972c8.633 2.298 15.87 4.254 16.103 4.348.574.264.838.947.59 1.537-.404.994.543.948-18.51.948-15.59 0-20.513.092-21.289.403-.233.078-.264-.078-.264-1.662 0-2.034.217-2.655 1.072-3.152.388-.217.792-.295 1.63-.295.605.015 7.485.9 15.28 1.972 9.968 1.367 14.285 1.91 14.534 1.801.885-.326 1.164-1.584.481-2.251-.202-.217-.466-.388-.575-.388-.108-.016-6.46-.87-14.1-1.91l-13.897-1.91-.047-.948c-.077-1.6.498-2.453 1.802-2.686.326-.062.791-.078 1.04-.031.265.047 7.532 1.942 16.15 4.224zm16.429 37.624a3.811 3.811 0 01-.714.792l-.435.326H33.888c-14.643 0-18.54-.047-19.24-.202-1.273-.295-2.282-1.025-2.764-1.972-.372-.745-.388-.9-.388-3.493v-2.717l4.426-.078c4.394-.078 4.425-.078 5.31-.497a5.892 5.892 0 002.811-2.749c.466-.962.497-1.133.497-2.733 0-1.615-.03-1.77-.497-2.733-.652-1.32-1.832-2.453-3.074-2.95-.886-.342-1.134-.373-5.264-.42l-4.332-.046.093-2.67c.046-1.538.17-2.936.295-3.293.295-.932 1.273-1.816 2.376-2.174.885-.279 1.8-.295 20.062-.388 10.512-.047 19.177-.14 19.255-.202.062-.077.14 6.134.17 13.805.03 13.044.015 13.96-.233 14.394zM12.195 32.261c8.168.077 7.981.062 8.789.962.683.73.87 1.351.808 2.531-.062 1.336-.56 2.221-1.522 2.718-.59.294-.885.31-7.407.31-4.317 0-7.019-.062-7.392-.17-.807-.218-1.77-1.119-1.972-1.818-.077-.325-.155-1.599-.155-2.841V31.67l.668.264c.559.218 1.723.265 8.183.327z"/><path id="Vector_2" d="M17.785 34.714c-.621.637-.637 1.289-.015 1.91.621.621 1.273.606 1.91-.015.403-.42.465-.56.388-1.04-.062-.311-.233-.7-.388-.854-.155-.155-.544-.326-.854-.389-.482-.078-.621-.016-1.04.388z"/></g></g></g></svg>