<svg width="1920" height="483" fill="none" xmlns="http://www.w3.org/2000/svg"><path fill="#222A31" d="M-33 0h1960v483H-33z"/><path opacity=".1" d="M273 210C71.4 205.2 13 389.333 9 482h1918V8c-52.67 126.667-190.4 380-320 380-162 0-226-348-480-340S937 374 703 388 525 216 273 210z" fill="#fff"/><path opacity=".2" d="M557.696 75.698c.996 3.717-2.406 7.12-6.124 6.123l-26.893-7.206c-3.717-.996-4.963-5.643-2.241-8.365l19.687-19.686c2.721-2.722 7.369-1.477 8.365 2.241l7.206 26.893zm-340.518 68.966c-3.754.85-7.021-2.682-5.88-6.358l8.25-26.591c1.141-3.676 5.833-4.739 8.447-1.913l18.902 20.441c2.614 2.826 1.188 7.421-2.566 8.271l-27.153 6.15zm1468.882-32.998c-.21-3.844 3.82-6.475 7.25-4.737l24.84 12.57c3.44 1.737 3.7 6.541.48 8.647l-23.31 15.228c-3.22 2.106-7.51-.066-7.72-3.91l-1.54-27.798zM433.305 197.909c-.212-3.843 3.816-6.475 7.25-4.737l24.842 12.57c3.434 1.738 3.7 6.542.478 8.647l-23.307 15.229c-3.223 2.105-7.516-.067-7.728-3.91l-1.535-27.799z" fill="#FF6B00"/></svg>