<svg width="18" height="19" fill="none" xmlns="http://www.w3.org/2000/svg"><g clip-path="url(#clip0_28_604)"><path d="M9 .18C4.13.18.18 4.14.18 9.026.18 13.91 4.13 17.87 9 17.87s8.82-3.96 8.82-8.845C17.82 4.141 13.87.181 9 .181zm5.823 6.54l-6.31 6.18c-.031.03-.066.054-.1.08a.985.985 0 01-.182.263c-.343.344-.885.362-1.207.04L3.229 9.477c-.322-.323-.304-.864.04-1.21s.885-.364 1.208-.042l3.103 3.113 6.01-5.884a.882.882 0 011.247.014c.34.35.335.91-.014 1.251z" fill="#FF6B00"/></g><defs><clipPath id="clip0_28_604"><path fill="#fff" d="M0 0h18v18.05H0z"/></clipPath></defs></svg>