<svg width="49" height="49" fill="none" xmlns="http://www.w3.org/2000/svg"><path d="M28.077 22.858zm1.921.275c-.167.01-.333.01-.49 0 .083.005.162.015.25.015.073.004.157-.01.24-.015zm-1.206-.083zm1.417.073z" fill="#222A31"/><path d="M40.023 29.552l.02-.02-.76-.764-.485-.48-.833-.833-.431-.431-4.155-4.156c-.49.343-1.181.701-2.195.98a5.36 5.36 0 01-1.431.192c-1.926 0-3.371-1.01-3.396-1.03l-4.003-2.567-.681.681c.112.956.343 3.224.147 4.787-.304 2.436-2.573 3.151-2.67 3.18l-.765.23-.314-.734c-.015-.035-1.436-3.357-2.376-5.949-1.132-3.121 1.01-5.125 1.073-5.18l2.915-2.915-2.033-2.033-9.634 9.643 3.538 3.538s.392.5.569 1.117c.073.26.103.52.112.74a2.7 2.7 0 011.906.794c.637.637.873 1.524.73 2.371l.084.084a2.71 2.71 0 011.607-.54c.725 0 1.406.285 1.92.794.662.657.902 1.593.73 2.46a2.725 2.725 0 011.75-.637c.725 0 1.407.284 1.921.794.995 1 1.058 2.621.142 3.7-.015.014-.024.029-.04.044a.803.803 0 01-.102.122l-.27.27c.192-.04.383-.069.579-.069.725 0 1.406.284 1.92.799.794.794.99 1.99.569 2.989l.196.196c.015.02.02.044.04.059.014.02.038.024.058.039l.005.005a.826.826 0 001.083-.015l.005.005.034-.034 1.406-1.407.054-.054-.01-.01a.816.816 0 000-1.058l.02-.02-.764-.759-.427-.426.926-.926c.172.171.304.298.294.289l1.24 1.24c.015.019.02.039.04.058.019.02.038.025.058.04l.005.004a.826.826 0 001.083-.014l.005.005.034-.035 1.406-1.406.054-.054-.01-.01a.828.828 0 000-1.058l.02-.02-1.348-1.347-.289-.285.912-.91c.632.626 1.396 1.386 1.42 1.405l.564.564c.015.02.02.04.04.059.014.014.039.024.058.039l.005.005a.826.826 0 001.083-.015l.005.005.034-.034 1.407-1.407.053-.053-.01-.01a.816.816 0 000-1.059l.02-.02-1.347-1.347-.735-.73.94-.94 1.319 1.317c.034.035.073.06.108.089l.563.563c.015.02.02.044.04.059.014.02.038.024.058.04l.005.004a.826.826 0 001.083-.015l.005.005.034-.034 1.406-1.406.054-.054-.01-.01c.265-.333.265-.77.01-1.083zm-8.207 4.047l.005-.005.73.73.005.006-.74-.73z" fill="#222A31"/><path d="M27.602 22.672c.112.05.23.093.357.142a4.186 4.186 0 01-.357-.142zm-.765-.406s.025.02.069.044c-.034-.025-.069-.044-.069-.044zm.123.074a3.86 3.86 0 010-.001zm.26.151zm11.099-14.94a3 3 0 00-4.244.001l-1.458 1.46a3 3 0 00.001 4.241l8.068 8.068a3 3 0 004.242.001l1.459-1.458a3 3 0 000-4.243l-8.069-8.07zm5.853 12.012a1.298 1.298 0 11-1.837-1.837 1.298 1.298 0 011.837 1.837zM2.612 15.18a3 3 0 000 4.244l1.049 1.049a3 3 0 004.242 0l7.636-7.636a3 3 0 00.001-4.242l-1.047-1.048a3 3 0 00-4.243-.001L2.612 15.18zm4.12 3.979c-.529.53-1.381.53-1.906 0a1.343 1.343 0 010-1.906 1.343 1.343 0 011.907 0c.529.53.529 1.382 0 1.906zm6.87 12.309a1.837 1.837 0 00-.093-2.494 1.836 1.836 0 00-2.489-.093l-.005.005c-.034.029-.073.053-.108.088l-.48.485c-.034.034-.059.073-.088.108l-.564.563c-.02.015-.039.02-.058.04-.015.019-.025.043-.04.058l-.004.005a.826.826 0 00.014 1.083l-.005.005.035.034 1.406 1.406.054.054.01-.01a.828.828 0 001.058 0l.02.02.764-.764.48-.48.103-.103-.01-.01zm10.971 10.187a1.83 1.83 0 00-.093-2.49 1.837 1.837 0 00-2.494-.092s-.078.063-.112.093l-.873.872c-.034.034-.058.073-.088.108l-.563.563c-.02.015-.04.02-.06.04-.019.014-.024.039-.038.058l-.005.005a.826.826 0 00.015 1.083l-.005.005.034.034 1.406 1.407.054.053.01-.01a.828.828 0 001.058 0l.02.02.764-.764.48-.48.495-.495-.005-.01zm-6.629-7.477a1.83 1.83 0 00-.093-2.49 1.837 1.837 0 00-2.494-.093l-1.26 1.26-.005.005c-.034.029 1.186-1.206 1.152-1.172l-.48.48c-.035.03-.06.074-.088.108L12.857 34.1c-.02.015-.04.02-.06.04-.014.014-.024.039-.038.058l-.005.005a.826.826 0 00.014 1.083l-.005.005.035.034 1.406 1.407.054.053.01-.01a.828.828 0 001.058 0l.02.02 2.019-2.019.48-.48-1.157 1.157 1.255-1.274zm4.4 2.616a1.837 1.837 0 00-.093-2.494 1.836 1.836 0 00-2.49-.093l-2.15 2.151-.005.005c-.035.03 2.077-2.097 2.043-2.063l-.48.485c-.035.03-2.21 2.22-2.24 2.259l-.563.559c-.02.014-.04.02-.059.039-.014.02-.024.039-.039.059l-.005.005a.826.826 0 00.015 1.082l-.005.005.034.035 1.407 1.406.053.054.01-.01a.828.828 0 001.059 0l.02.02 2.91-2.911.48-.485-2.038 2.053 2.136-2.16z" fill="#222A31"/><path d="M21.923 13.573L17.4 18.096s-1.808 1.65-.867 4.248c.945 2.597 2.361 5.9 2.361 5.9s1.809-.55 2.044-2.44c.235-1.887-.201-4.999-.201-4.999l1.494-1.494 4.606 2.954s1.887 1.338 4.111.726c2.22-.608 2.656-1.593 2.656-1.593l4.288 4.288 2.714-2.715-10.148-10.148-1.68 1.68-6.855-.93z" fill="#222A31"/></svg>