<svg width="42" height="42" fill="none" xmlns="http://www.w3.org/2000/svg"><path d="M8.03 22.176h3.722v1.28H8.03v-1.28zm13.407-1.168c.353 0 .684.08.983.227a22.199 22.199 0 013.872-3.713c.353.336.706.672 1.063 1.008a21.377 21.377 0 01-3.717 4.276 2.242 2.242 0 11-4.04-.827 38.339 38.339 0 01-4.23-7.224l1.125-.618c1.66 2.23 3.108 4.549 4.301 6.972a2 2 0 01.643-.1zM18.228 8.786l-.004 3.83L28.799 6.54 18.245.42l-.009 3.928a18.67 18.67 0 00-10.47 5.28A18.68 18.68 0 002.28 22.86c0 4.982 1.961 9.715 5.485 13.235A18.648 18.648 0 0021 41.58c4.981 0 9.715-1.962 13.238-5.485a18.732 18.732 0 004.583-7.489l.218-.676-4.192-1.243-.21.638A14.33 14.33 0 0131.147 33a14.287 14.287 0 01-10.143 4.2A14.295 14.295 0 0110.865 33c-2.7-2.7-4.2-6.325-4.2-10.143 0-3.818 1.504-7.442 4.2-10.139a14.308 14.308 0 017.363-3.93zM35.183 20.71a14.051 14.051 0 00-.68-2.692l-.231-.643 4.1-1.528.239.655c.457 1.264.772 2.574.949 3.91l.1.752-4.384.16-.093-.614zm-.08 4.78c.16-.865.24-1.747.24-2.625 0-.088 0-.172-.004-.26l-.009-.681 4.373-.16.016.702a19.017 19.017 0 01-.37 4.141l-.15.74-4.205-1.248.11-.61zm-1.36-9.215a14.421 14.421 0 00-1.344-2.117l-.416-.542 3.444-2.696.424.554a18.356 18.356 0 011.945 3.13l.336.684-4.112 1.537-.277-.55zm-2.163-3.116l-.441-.437a14.39 14.39 0 00-2.083-1.726l-.618-.42 2.734-3.44.534.374c.899.63 1.747 1.34 2.524 2.116.092.093.18.185.269.278l.529.554-3.448 2.7zM21.008 35.59v-3.717h1.281v3.717h-1.28zm9.396-3.713l-2.63-2.63.908-.907 2.629 2.63-.907.907zm-18.665-.307l2.633-2.629.908.907-2.63 2.63-.911-.908zm.307-18.665l2.629 2.634-.903.907-2.634-2.63.908-.91zm18.664.307l-.907-.907-2.629 2.633.907.908 2.63-2.634zm3.713 9.4h-3.721v-1.281h3.721v1.28z" fill="#222A31"/></svg>