<svg width="93" height="93" fill="none" xmlns="http://www.w3.org/2000/svg"><path d="M93 88V12.071c0-4.454-5.386-6.685-8.536-3.535L8.536 84.465C5.385 87.615 7.615 93 12.07 93H88a5 5 0 005-5z" fill="#FF6B00"/><g clip-path="url(#clip0_1088_4)"><path d="M77.505 60.339c-.001-.002-.001-.002 0 0l-6.583-6.584a1.553 1.553 0 00-2.195 2.196l3.933 3.934-18.197-.002a1.552 1.552 0 100 3.104h18.199l-3.934 3.934a1.553 1.553 0 002.195 2.195l7.68-7.68-1.098-1.097z" fill="#fff"/></g><defs><clipPath id="clip0_1088_4"><rect x="65.435" y="48" width="19" height="19" rx="3" transform="rotate(45 65.435 48)" fill="#fff"/></clipPath></defs></svg>