<svg width="34" height="34" fill="none" xmlns="http://www.w3.org/2000/svg"><path d="M15.65 5.073c.54.17.917.482 1.178.983l.157.294.019 3.497.02 3.505H2.42l.019-3.505c.02-3.465.02-3.497.163-3.765.221-.417.462-.67.827-.86l.332-.175 5.863-.013c3.224-.007 5.934.013 6.025.039zm-2.255 2.13a1.022 1.022 0 00-.39.39c-.164.275-.164.288-.144 1.649.02 1.257.033 1.381.156 1.544.254.345.463.45.873.45s.619-.105.873-.45c.124-.163.137-.287.156-1.544.02-1.361.02-1.374-.143-1.648a1.119 1.119 0 00-.377-.384c-.28-.137-.724-.137-1.004-.007zm-4.273.059a1.503 1.503 0 00-.313.371c-.13.235-.136.32-.117 1.609.02 1.257.033 1.381.156 1.544.254.345.463.45.873.45s.619-.105.873-.45c.124-.163.137-.287.156-1.544.02-1.361.02-1.374-.143-1.648-.09-.156-.26-.332-.377-.391-.287-.143-.873-.11-1.108.059zm-4.169 0a1.503 1.503 0 00-.312.371c-.13.235-.137.32-.118 1.609.02 1.257.033 1.381.157 1.544.254.345.462.45.872.45s.62-.105.873-.45c.124-.163.137-.287.157-1.544.019-1.361.019-1.374-.144-1.648-.091-.156-.26-.332-.378-.391-.286-.143-.872-.11-1.107.059z" fill="#FF6B00"/><path d="M26.996 6.18c.75.241 1.655.88 2.625 1.857 1.85 1.856 3.323 4.299 3.883 6.455.156.58.156.619.156 4.07v3.486l-.17.365c-.227.488-.625.872-1.152 1.12-.365.17-.522.202-1.088.228l-.658.026-.078.606c-.274 2.15-1.772 3.85-3.922 4.436-.586.157-1.889.157-2.475 0-.97-.267-1.66-.658-2.364-1.335-.925-.886-1.446-1.974-1.576-3.283l-.046-.437h-7.256l-.072.573c-.157 1.244-.625 2.189-1.511 3.081-.632.632-1.232 1.01-1.974 1.258-1.948.651-3.987.156-5.4-1.31-.866-.899-1.335-1.902-1.46-3.165l-.045-.437h-.436c-.235 0-.547-.033-.69-.072-.34-.097-.776-.534-.874-.872-.097-.365-.097-7.126 0-7.491.098-.339.534-.776.873-.873.182-.052 2.808-.072 9.035-.072h8.774l.02-3.309.02-3.302.168-.365c.229-.489.626-.873 1.153-1.12l.437-.209 2.866-.013c2.631-.013 2.899-.006 3.237.104zm-5.328 2.13a1.779 1.779 0 00-.313.313c-.13.17-.137.26-.137 1.863 0 1.602.007 1.693.137 1.863.247.332.443.423 1.173.553.95.176 1.517.345 2.143.658.677.332 1.094.652 1.602 1.225.228.26.495.508.593.56.26.137 2.846.13 3.107-.006.267-.137.514-.456.567-.73.058-.3-.111-1.25-.339-1.941-.573-1.746-1.941-3.687-3.094-4.39-.215-.137-.28-.137-2.742-.124-2.43.02-2.528.026-2.697.156zm2.925 12.429c-.19.052-.483.156-.652.24-.423.203-1.186.978-1.4 1.427-.567 1.205-.352 2.554.58 3.524a3.075 3.075 0 004.5-.032c.893-.958 1.108-2.215.586-3.426-.247-.567-.983-1.303-1.55-1.55-.644-.274-1.445-.346-2.064-.183zm-17.718 0a4.318 4.318 0 00-.651.24c-.398.19-1.18.978-1.381 1.382-.593 1.218-.378 2.586.56 3.57.944.99 2.397 1.243 3.648.638.404-.202 1.192-.984 1.38-1.381a3.245 3.245 0 00.06-2.716c-.248-.567-.984-1.303-1.551-1.55-.645-.274-1.446-.346-2.065-.183z" fill="#FF6B00"/></svg>