<svg width="25" height="29" fill="none" xmlns="http://www.w3.org/2000/svg"><path d="M5.974 9.209l13.186-.012a1.312 1.312 0 100-2.626l-13.186.012a1.312 1.312 0 100 2.626zm18.42 8.878l-.011-15.703A2.63 2.63 0 0021.81 0L3.133.012A2.63 2.63 0 00.752 2.629v1.396H.74l.009 20.852h.003v1.395a2.626 2.626 0 002.626 2.626H4.69v.01l3.877-.007a1.312 1.312 0 100-2.626l-4.17.009 1.606-.038c-2.057 0-2.6-.378-2.626-2.467l.017 2.508h-.017L3.366 2.644h.03L3.377 5.13c.026-2.089.569-2.467 2.626-2.467l-.85-.02 15.187-.01-1.201.03c1.938 0 2.534.337 2.617 2.128l.009 12.28-5.17.003v.003H15.2a2.626 2.626 0 00-2.626 2.626v1.313h-.01l.01 6.309a1.313 1.313 0 00.817 1.492 1.313 1.313 0 001.593-.495l8.758-8.778a1.33 1.33 0 00.253-.192 1.306 1.306 0 00.399-1.266zM21.752 2.63h.006v.885l-.006-.885zm-6.556 21.764l-.003-2.281c.03-1.874.49-2.381 2.502-2.408l-2.487.018-.015 2.337-.003-2.355 4.691-.006-4.685 4.695zm-9.22-9.93l13.185-.01a1.312 1.312 0 100-2.627l-13.186.009a1.315 1.315 0 000 2.629z" fill="#FF6B00"/></svg>