<svg width="18" height="19" fill="none" xmlns="http://www.w3.org/2000/svg"><g clip-path="url(#clip0_43_1014)" id="d68828195658f6ca98d3f9908842a34e 3"><g id="Group"><path id="Vector" d="M9 .192C4.13.192.18 4.152.18 9.036c0 4.885 3.95 8.845 8.82 8.845s8.82-3.96 8.82-8.845C17.82 4.152 13.87.192 9 .192zm5.823 6.54l-6.31 6.178c-.031.03-.066.054-.1.08a.985.985 0 01-.182.263c-.343.345-.885.363-1.207.04L3.229 9.488c-.322-.323-.304-.864.04-1.21s.885-.364 1.208-.042L7.58 11.35l6.01-5.884a.882.882 0 011.248.014c.34.35.334.91-.015 1.251z" fill="#00BD1E"/></g></g><defs><clipPath id="clip0_43_1014"><rect y=".011" width="18" height="18.05" rx="5" fill="#fff"/></clipPath></defs></svg>