<svg width="30" height="30" fill="none" xmlns="http://www.w3.org/2000/svg"><g clip-path="url(#clip0_59_22)"><path d="M28.623 12.858l-2.913-.486a11.034 11.034 0 00-.921-2.463l1.863-2.313a1.285 1.285 0 00-.039-1.662L25.455 4.63a1.285 1.285 0 00-1.647-.234l-2.49 1.566a10.95 10.95 0 00-3.675-1.659l-.486-2.928A1.286 1.286 0 0015.888.3h-1.746a1.28 1.28 0 00-1.266 1.074l-.489 2.928a10.89 10.89 0 00-3.09 1.284l-2.37-1.689a1.281 1.281 0 00-1.656.138L4.038 5.268a1.285 1.285 0 00-.135 1.656l1.695 2.373a10.952 10.952 0 00-1.275 3.069l-2.946.492A1.288 1.288 0 00.3 14.127v1.743c0 .63.456 1.167 1.074 1.269l2.946.492c.222.903.546 1.764.975 2.565l-1.857 2.298a1.285 1.285 0 00.04 1.662l1.157 1.305c.42.471 1.116.57 1.647.234l2.526-1.587a10.892 10.892 0 003.576 1.587l.489 2.928a1.28 1.28 0 001.266 1.074h1.746c.63 0 1.167-.456 1.269-1.074l.489-2.928a10.926 10.926 0 003.057-1.263l2.466 1.761a1.28 1.28 0 001.656-.138l1.233-1.233a1.281 1.281 0 00.135-1.656l-1.758-2.463a10.927 10.927 0 001.278-3.078l2.913-.486a1.283 1.283 0 001.074-1.269v-1.743a1.283 1.283 0 00-1.074-1.269zm-13.578 7.653a5.511 5.511 0 110-11.022 5.511 5.511 0 010 11.022z" fill="#FF6B00"/></g><defs><clipPath id="clip0_59_22"><path fill="#fff" d="M0 0h30v30H0z"/></clipPath></defs></svg>