<svg width="21" height="21" fill="none" xmlns="http://www.w3.org/2000/svg"><g id="06c84dc55459925e40e702e169b56226 1" clip-path="url(#clip0_60_2)"><g id="Group"><path id="Vector" d="M19.505 11.785h-1.287a1.288 1.288 0 010-2.575h1.287c.712 0 1.285.578 1.285 1.288 0 .712-.575 1.287-1.285 1.287zm-2.638-5.833a1.286 1.286 0 01-1.818-1.82l.909-.908a1.284 1.284 0 011.818 0 1.284 1.284 0 010 1.82l-.909.908zM10.5 15.645a5.145 5.145 0 110-10.29 5.145 5.145 0 010 10.29zm0-7.717A2.571 2.571 0 007.927 10.5a2.571 2.571 0 002.573 2.573 2.571 2.571 0 002.572-2.573A2.571 2.571 0 0010.5 7.928zm0-3.86c-.71 0-1.287-.576-1.287-1.287V1.495a1.287 1.287 0 012.572 0v1.286c0 .711-.573 1.287-1.285 1.287zM4.135 5.952l-.91-.91a1.286 1.286 0 011.82-1.818l.908.909a1.286 1.286 0 01-1.818 1.819zM4.07 10.5c0 .712-.576 1.285-1.288 1.285H1.497a1.287 1.287 0 110-2.572h1.288c.71 0 1.285.577 1.285 1.287zm.065 4.547a1.286 1.286 0 011.818 1.818l-.909.91a1.286 1.286 0 01-1.818-1.82l.909-.908zM10.5 16.93c.712 0 1.285.576 1.285 1.285v1.288a1.287 1.287 0 11-2.572 0v-1.288A1.288 1.288 0 0110.5 16.93zm6.367-1.883l.91.909a1.286 1.286 0 01-1.82 1.819l-.908-.91a1.286 1.286 0 011.818-1.818z" fill="#F90"/></g></g><defs><clipPath id="clip0_60_2"><path fill="#fff" d="M0 0h21v21H0z"/></clipPath></defs></svg>