<svg width="39" height="39" fill="none" xmlns="http://www.w3.org/2000/svg"><path d="M11.82 28.08c-1.38 0-2.7-.48-3.72-1.32l-3.6 7.68 5.7-2.04 2.1 5.7 3.66-7.8c-.6-.3-1.08-.66-1.56-1.14a3.587 3.587 0 00-2.58-1.08zm16.62-.84c-.9.54-1.92.84-3.06.84-.96 0-1.86.36-2.52 1.08a5.9 5.9 0 01-2.34 1.44L24 38.1l2.1-5.7 5.7 2.1-3.36-7.26zM18.6 5.7c-5.28 0-9.6 4.32-9.6 9.6 0 5.28 4.32 9.6 9.6 9.6 5.28 0 9.6-4.32 9.6-9.6 0-5.28-4.32-9.6-9.6-9.6zm4.2 15.42l-4.2-2.22-4.2 2.22.78-4.68-3.42-3.3 4.68-.66 2.1-4.26 2.1 4.26 4.68.66-3.42 3.3.9 4.68z" fill="#FF6B00"/><path d="M25.38 26.88c2.64 0 4.8-2.16 4.8-4.8 0-1.26.48-2.52 1.38-3.42 1.86-1.86 1.86-4.92 0-6.78-.9-.9-1.38-2.1-1.38-3.42 0-2.64-2.16-4.8-4.8-4.8-1.26 0-2.52-.48-3.42-1.38-1.86-1.86-4.92-1.86-6.78 0-.9.9-2.1 1.38-3.42 1.38-2.64 0-4.8 2.16-4.8 4.8 0 1.26-.48 2.52-1.38 3.42a4.89 4.89 0 000 6.84c.9.9 1.38 2.1 1.38 3.42 0 2.64 2.16 4.8 4.8 4.8 1.26 0 2.52.48 3.42 1.38 1.86 1.86 4.92 1.86 6.78 0 .96-.9 2.16-1.44 3.42-1.44zm-6.78-.78c-5.94 0-10.8-4.86-10.8-10.8S12.66 4.5 18.6 4.5s10.8 4.86 10.8 10.8-4.86 10.8-10.8 10.8z" fill="#FF6B00"/></svg>