<svg width="33" height="32" fill="none" xmlns="http://www.w3.org/2000/svg"><g id="ca22fd7c33a5651d317cca61c6fb732c 1" clip-path="url(#clip0_43_1059)"><g id="Group"><path id="Vector" d="M16.794.32C8.026.32.917 7.158.917 15.597c0 2.886.832 5.584 2.277 7.888L.33 31.68l8.791-2.707c2.274 1.21 4.89 1.9 7.673 1.9 8.768 0 15.876-6.84 15.876-15.276C32.67 7.158 25.562.32 16.794.32zm7.893 21.078c-.373.9-2.062 1.719-2.808 1.754-.746.038-.766.56-4.825-1.149-4.059-1.712-6.5-5.869-6.692-6.137-.191-.266-1.57-2.173-1.498-4.093.076-1.92 1.158-2.826 1.544-3.2a1.57 1.57 0 011.1-.448c.32-.007.527-.01.761 0 .238.01.591-.048.898.745.307.794 1.043 2.74 1.135 2.941.093.199.152.43.007.685-.145.256-.221.416-.43.637-.21.22-.445.493-.633.662-.211.186-.432.39-.208.79.221.4.987 1.706 2.149 2.781 1.495 1.383 2.785 1.844 3.184 2.052.4.21.637.185.881-.064.244-.253 1.056-1.101 1.343-1.482.287-.38.555-.307.921-.163s2.32 1.158 2.72 1.37c.398.207.662.316.758.483.096.156.066.937-.307 1.836z" fill="#42B000"/></g></g><defs><clipPath id="clip0_43_1059"><path fill="#fff" d="M0 0h33v32H0z"/></clipPath></defs></svg>