<svg width="21" height="21" fill="none" xmlns="http://www.w3.org/2000/svg"><g id="783aa9f0fd6ecba7714550668e063212 1"><g id="Group"><g id="Group_2"><path id="Vector" d="M9.985.509l-.45.294v1.906l-.662-.661-.657-.657-.57.1c-.312.056-.574.107-.578.111-.005.005-.05.262-.106.58l-.097.569 1.333 1.332L9.535 5.42v3.382l-.216-.12c-.124-.063-.776-.454-1.461-.863l-1.24-.744-.46-1.801C5.9 4.28 5.675 3.45 5.652 3.426c-.041-.032-1.006-.418-1.056-.418-.019 0-.68.777-.726.855-.019.032.068.45.193.937.17.648.21.873.16.855-.032-.014-.395-.22-.804-.464l-.744-.441-.165.069c-.092.036-.326.142-.529.239l-.363.174.033.575c.018.317.036.579.04.583.006.005.373.22.814.478.464.28.772.487.735.5-.036.01-.44.12-.896.235l-.827.216-.22.547-.22.547.151.128c.083.074.29.244.455.377l.298.248 1.788-.455a63.8 63.8 0 011.851-.46c.074 0 2.95 1.701 2.95 1.747 0 .041-2.876 1.746-2.95 1.746-.032 0-.863-.207-1.847-.46l-1.787-.459-.303.253c-.166.133-.372.303-.455.376l-.152.13.22.546.221.551.869.216c.477.124.872.23.886.24.01.013-.344.234-.78.495l-.8.474-.032.367a11.73 11.73 0 00-.028.584v.211l.501.235c.271.133.506.238.52.238.013 0 .372-.206.799-.459.427-.253.79-.46.809-.46.013 0-.074.387-.198.86a28.62 28.62 0 00-.225.896c0 .018.165.23.372.473.266.317.39.432.446.414.358-.115 1.001-.39 1.029-.441a58.2 58.2 0 00.478-1.81c.239-.961.46-1.77.482-1.797.037-.046 2.734-1.664 2.853-1.71.019-.009.037.745.037 1.678v1.69l-1.337 1.338-1.332 1.332.096.57c.055.317.101.579.106.583.005.005.266.051.583.106l.57.096.657-.657.657-.657v1.884l.455.312c.253.17.483.308.51.308.028 0 .258-.137.51-.308l.455-.312v-1.884l.657.657.658.657.57-.096c.316-.055.578-.101.583-.106.004-.004.05-.266.105-.583l.097-.57-1.333-1.332-1.337-1.337v-1.691c0-.933.019-1.687.037-1.677.023.004.68.395 1.461.854l1.42.846.455 1.787c.253.983.478 1.82.505 1.852.042.05.35.179.997.418.051.018.175-.092.419-.377.188-.22.353-.427.372-.455.013-.027-.074-.45-.198-.932-.165-.658-.207-.878-.156-.86.037.014.4.22.804.465.409.239.758.436.781.436.023 0 .258-.11.524-.239l.482-.243v-.235c0-.128-.013-.39-.027-.579l-.032-.34-.8-.473c-.436-.262-.79-.482-.781-.491.01-.01.409-.12.887-.24l.868-.225.22-.546.221-.547-.151-.129c-.083-.073-.29-.244-.455-.377l-.304-.252-1.796.46c-.988.252-1.815.459-1.843.459-.073 0-2.945-1.705-2.945-1.746 0-.019.657-.423 1.461-.9l1.457-.865 1.838.464 1.833.47.303-.249c.166-.138.368-.303.45-.377l.152-.128-.22-.547-.22-.547-.828-.216c-.455-.12-.859-.225-.896-.239-.037-.01.276-.22.735-.496.441-.257.809-.478.814-.478.004-.004.022-.266.041-.583l.028-.57-.487-.244c-.267-.128-.506-.239-.533-.239-.023 0-.372.198-.782.437-.404.244-.767.45-.799.464-.05.018-.01-.207.16-.855.125-.487.212-.905.194-.937-.055-.092-.708-.855-.73-.855-.056 0-1.011.382-1.053.418-.023.023-.248.855-.505 1.848l-.46 1.8-1.227.735c-.68.404-1.333.795-1.461.864l-.23.128V5.421l1.337-1.337 1.332-1.333-.096-.57a7.625 7.625 0 00-.11-.583 6.609 6.609 0 00-.58-.106l-.569-.096-.657.657-.657.657V.808l-.46-.3c-.257-.165-.487-.302-.519-.298-.032 0-.257.138-.5.299z" fill="#6D90CD"/></g></g></g></svg>